<svg width="15" height="15" viewBox="0 0 15 15" fill="none" xmlns="http://www.w3.org/2000/svg">
<g clip-path="url(#clip0_827_2)">
<path d="M7.50154 7.78913C9.64441 7.78913 11.3961 6.03744 11.3961 3.89456C11.3961 1.75169 9.64441 0 7.50154 0C5.35867 0 3.60701 1.75169 3.60701 3.89456C3.60701 6.03744 5.3587 7.78913 7.50154 7.78913ZM14.1852 10.9014C14.0832 10.6463 13.9472 10.4082 13.7941 10.1871C13.0118 9.0306 11.8043 8.2653 10.4438 8.07822C10.2737 8.06123 10.0866 8.09522 9.95056 8.19727C9.23627 8.72448 8.38595 8.99658 7.50157 8.99658C6.6172 8.99658 5.76687 8.72448 5.05258 8.19727C4.91652 8.09522 4.72944 8.04421 4.55939 8.07822C3.19884 8.2653 1.97436 9.0306 1.20906 10.1871C1.056 10.4082 0.919932 10.6633 0.817913 10.9014C0.766904 11.0034 0.783896 11.1225 0.834905 11.2245C0.970973 11.4626 1.14103 11.7007 1.29409 11.9048C1.53217 12.2279 1.78728 12.517 2.07641 12.7891C2.3145 13.0272 2.5866 13.2483 2.85873 13.4694C4.20226 14.4728 5.81791 15 7.48458 15C9.15125 15 10.7669 14.4728 12.1104 13.4694C12.3825 13.2653 12.6546 13.0272 12.8928 12.7891C13.1649 12.517 13.437 12.2279 13.6751 11.9048C13.8451 11.6837 13.9982 11.4626 14.1343 11.2245C14.2193 11.1225 14.2363 11.0034 14.1852 10.9014Z" fill="white"/>
</g>
<defs>
<clipPath id="clip0_827_2">
<rect width="15" height="15" fill="white"/>
</clipPath>
</defs>
</svg>
