<svg width="796" height="100" viewBox="0 0 796 100" fill="none" xmlns="http://www.w3.org/2000/svg">
<path d="M357.66 22.1023C369.6 30.4323 381.64 38.9323 392.57 48.7823C398.72 54.3223 407.62 62.3823 406.75 71.5023C406.03 79.0123 396.07 90.1123 390.58 95.1423C389.91 95.7623 385.34 99.7323 384.98 99.7923C382.94 100.102 385.49 95.3423 385.75 94.5723C387.58 89.1123 387.56 84.8623 384.44 79.9523C370.78 58.4523 341.28 44.7823 320.66 30.8523C315.56 26.7723 316.84 21.6623 317.99 16.0023C318.64 12.7723 320.95 3.49226 322.68 1.07226C324.02 -0.807739 324.76 0.182262 326.3 1.04226C336.8 6.94226 347.8 15.2223 357.67 22.1023H357.66Z" fill="white"/>
<path d="M461.09 56.332C461.21 56.872 460.79 57.0021 460.52 57.3221C456.18 62.6621 450.35 67.5521 445.43 72.3621C430.9 81.4321 415.46 89.1421 400.37 97.2521C399.27 96.8721 397.83 97.4621 398.31 96.0421C398.58 95.2421 403.74 91.4421 404.82 90.6121C412.04 85.0421 420.05 79.4821 427.73 74.5721C438.39 67.7521 449.55 61.502 461.09 56.332Z" fill="white"/>
<path d="M501.631 14.0124V10.9424H522.911V14.0124L513.031 15.1424H511.481L501.621 14.0124H501.631ZM513.041 57.1724L522.921 58.3024V61.3724H501.641V58.3024L511.501 57.1724H513.051H513.041ZM508.711 34.3024C508.711 26.5424 508.711 18.7024 508.481 10.9424H516.051C515.821 18.5524 515.821 26.3924 515.821 34.3024V38.0124C515.821 45.7724 515.821 53.6124 516.051 61.3724H508.481C508.711 53.7624 508.711 45.9224 508.711 38.0124V34.3024Z" fill="white"/>
<path d="M535.842 14.0124V10.9424H557.092V14.0124L547.252 15.1424H545.702L535.842 14.0124ZM547.252 57.1724L557.052 58.3024V61.3724H535.842V58.3024L545.702 57.1724H547.252ZM542.922 34.3024C542.922 26.5424 542.922 18.7024 542.692 10.9424H550.022C549.792 18.5524 549.792 26.3924 549.792 34.3024V39.8924C549.792 45.7824 549.792 53.6124 550.022 61.3824H542.692C542.922 53.7724 542.922 45.9324 542.922 38.0224V34.3124V34.3024ZM546.342 43.2324L572.732 10.9424H577.312L546.342 48.1524V43.2324ZM560.452 28.4924L578.692 61.3824H571.232L556.312 33.4524L560.452 28.5024V28.4924ZM563.012 58.3024L572.122 57.1724H573.292L582.382 58.3024V61.3724H563.022V58.3024H563.012ZM563.902 14.0124V10.9424H581.242V14.0124L572.932 15.1424L571.382 15.5024L563.902 14.0124Z" fill="white"/>
<path d="M590.16 58.3025L597.71 57.1725H599.21L607.43 58.3025V61.3725H590.16V58.3025ZM612.56 10.5725H617.27L634.58 61.3725H627.24L612.22 16.4925L614.01 16.2725L598.69 61.3625H595.1L612.56 10.5625V10.5725ZM603.79 41.4725H624.14L625.37 44.9925H602.58L603.79 41.4725ZM618.51 58.3125L627.95 57.1825H629.66L639.02 58.3125V61.3725H618.51V58.3125Z" fill="white"/>
<path d="M648.65 14.0116V10.9416H659.29V15.1416H658.51L648.65 14.0116ZM660.07 57.1716L669.93 58.3016V61.3716H648.65V58.3016L658.51 57.1716H660.07ZM655.73 34.3016C655.73 26.5416 655.73 18.7016 655.5 10.9416H663.06C662.83 18.7716 662.83 26.1716 662.83 35.0216V37.2816C662.83 45.7716 662.83 53.6116 663.06 61.3716H655.5C655.73 53.7616 655.73 45.9217 655.73 38.0117V34.3016ZM659.29 34.6016H668.68C676.78 34.6016 680.61 30.2316 680.61 24.2016C680.61 18.1716 677.23 14.4516 669.48 14.4516H659.28V10.9316H669.72C681.27 10.9316 688.04 15.8216 688.04 24.1516C688.04 30.5216 683.03 36.3316 672.96 37.1516L673.18 36.5416C678.98 37.0616 682.27 39.6216 684.27 46.4816L687.87 58.9417L685.31 57.3716L693.27 58.2916V61.3616C691.79 61.8316 690.01 62.1317 687.68 62.1317C682.91 62.1317 680.77 60.8916 679.88 57.2816L676.89 45.2017C675.43 39.1517 672.69 38.0316 666.53 38.0316H659.28V34.5916L659.29 34.6016Z" fill="white"/>
<path d="M701.252 14.0116V10.9416H722.552V14.0116L712.672 15.1416H711.132L701.252 14.0116ZM727.212 57.1516C735.772 57.1516 740.122 52.2716 740.122 38.9016V10.9316H743.952V40.7516C743.952 56.5816 736.282 62.5117 725.972 62.5117C715.032 62.5117 707.602 56.4417 707.602 42.3917V34.2516C707.602 26.5116 707.602 18.6816 707.372 10.9316H714.942C714.712 18.5316 714.712 26.3516 714.712 34.2516V40.1917C714.712 53.0717 719.532 57.1417 727.192 57.1417L727.212 57.1516ZM740.692 15.1116L732.422 14.0016V10.9316H750.502V14.0016L742.242 15.1116H740.692Z" fill="white"/>
<path d="M787.011 49.632C787.011 44.782 784.131 42.622 777.681 40.092L774.801 38.942C767.051 35.872 761.781 31.492 761.781 23.772C761.781 15.082 769.091 9.79199 778.771 9.79199C783.841 9.79199 787.901 11.362 791.171 13.772L790.711 23.612H786.051L783.961 12.232L788.851 14.702V18.472C785.141 14.892 782.351 13.602 778.361 13.602C772.571 13.602 768.181 16.532 768.181 22.092C768.181 26.802 771.231 29.542 776.671 31.652L779.641 32.812C789.571 36.682 793.421 41.042 793.421 48.162C793.421 57.052 786.001 62.532 775.531 62.532C769.881 62.532 764.331 60.752 760.811 58.542L761.261 47.952H765.931L767.891 59.592L762.941 57.502V53.882C767.621 57.222 770.211 58.722 775.321 58.722C782.381 58.722 787.021 55.422 787.021 49.642L787.011 49.632Z" fill="white"/>
<path d="M501.621 82.2012V88.2911C501.621 88.9011 501.771 89.3712 502.071 89.7012C502.371 90.0312 502.811 90.1912 503.391 90.1912C503.971 90.1912 504.411 90.0212 504.721 89.7012C505.031 89.3712 505.181 88.9011 505.181 88.2911V82.2012H507.661V88.2711C507.661 89.1811 507.471 89.9512 507.081 90.5712C506.691 91.2012 506.171 91.6712 505.521 91.9911C504.871 92.3111 504.141 92.4711 503.341 92.4711C502.541 92.4711 501.821 92.3112 501.191 92.0012C500.561 91.6912 500.061 91.2111 499.691 90.5811C499.321 89.9511 499.141 89.1811 499.141 88.2711V82.2012H501.621Z" fill="white"/>
<path d="M518.5 92.3712H516.02L511.88 86.1011V92.3712H509.4V82.2012H511.88L516.02 88.5012V82.2012H518.5V92.3712Z" fill="white"/>
<path d="M522.771 82.2012V92.3712H520.291V82.2012H522.771Z" fill="white"/>
<path d="M531.89 82.2012V84.1912H529.19V92.3812H526.71V84.1912H524.01V82.2012H531.88H531.89Z" fill="white"/>
<path d="M535.611 84.1812V86.2411H538.931V88.1511H535.611V90.3812H539.361V92.3712H533.131V82.2012H539.361V84.1912H535.611V84.1812Z" fill="white"/>
<path d="M547.6 82.8311C548.4 83.2511 549.02 83.8512 549.46 84.6212C549.9 85.3912 550.12 86.2711 550.12 87.2811C550.12 88.2911 549.9 89.1612 549.46 89.9312C549.02 90.7012 548.4 91.3011 547.59 91.7311C546.78 92.1611 545.85 92.3712 544.79 92.3712H540.98V82.2012H544.79C545.86 82.2012 546.8 82.4111 547.6 82.8411V82.8311ZM546.81 89.4611C547.33 88.9511 547.59 88.2211 547.59 87.2911C547.59 86.3611 547.33 85.6211 546.81 85.1011C546.29 84.5811 545.56 84.3212 544.62 84.3212H543.45V90.2311H544.62C545.56 90.2311 546.29 89.9711 546.81 89.4611Z" fill="white"/>
<path d="M566.1 82.2012V92.3712H563.62V86.2711L561.34 92.3712H559.34L557.05 86.2612V92.3712H554.57V82.2012H557.5L560.35 89.2411L563.18 82.2012H566.09H566.1Z" fill="white"/>
<path d="M574.211 90.5712H570.411L569.801 92.3712H567.211L570.891 82.2012H573.761L577.441 92.3712H574.821L574.211 90.5712ZM573.581 88.6611L572.321 84.9412L571.071 88.6611H573.581Z" fill="white"/>
<path d="M583.751 92.3712L581.631 88.5311H581.041V92.3712H578.561V82.2012H582.721C583.521 82.2012 584.211 82.3412 584.771 82.6212C585.331 82.9012 585.761 83.2811 586.041 83.7711C586.321 84.2611 586.461 84.8011 586.461 85.4011C586.461 86.0811 586.271 86.6811 585.891 87.2111C585.511 87.7411 584.951 88.1211 584.201 88.3411L586.551 92.3712H583.751ZM581.041 86.7811H582.581C583.031 86.7811 583.371 86.6712 583.601 86.4512C583.831 86.2312 583.941 85.9112 583.941 85.5112C583.941 85.1112 583.831 84.8211 583.601 84.6011C583.371 84.3811 583.031 84.2711 582.581 84.2711H581.041V86.7911V86.7811Z" fill="white"/>
<path d="M590.49 82.2012V92.3712H588.01V82.2012H590.49Z" fill="white"/>
<path d="M601.381 92.3712H598.901L594.761 86.1011V92.3712H592.281V82.2012H594.761L598.901 88.5012V82.2012H601.381V92.3712Z" fill="white"/>
<path d="M605.66 84.1812V86.2411H608.98V88.1511H605.66V90.3812H609.41V92.3712H603.18V82.2012H609.41V84.1912H605.66V84.1812Z" fill="white"/>
<path d="M615.771 92.1113C615.181 91.8713 614.711 91.5113 614.361 91.0413C614.011 90.5713 613.821 90.0012 613.801 89.3312H616.441C616.481 89.7112 616.611 89.9913 616.831 90.1913C617.051 90.3913 617.341 90.4913 617.701 90.4913C618.061 90.4913 618.361 90.4113 618.571 90.2413C618.781 90.0713 618.891 89.8413 618.891 89.5413C618.891 89.2913 618.811 89.0813 618.641 88.9213C618.471 88.7613 618.261 88.6213 618.021 88.5113C617.771 88.4013 617.421 88.2812 616.971 88.1512C616.311 87.9512 615.781 87.7413 615.361 87.5413C614.941 87.3413 614.591 87.0413 614.291 86.6413C613.991 86.2413 613.841 85.7312 613.841 85.0912C613.841 84.1412 614.181 83.4013 614.871 82.8713C615.561 82.3313 616.451 82.0713 617.551 82.0713C618.651 82.0713 619.571 82.3413 620.261 82.8713C620.951 83.4113 621.311 84.1513 621.361 85.1113H618.681C618.661 84.7813 618.541 84.5212 618.321 84.3312C618.101 84.1412 617.811 84.0513 617.461 84.0513C617.161 84.0513 616.921 84.1313 616.741 84.2913C616.561 84.4513 616.461 84.6813 616.461 84.9813C616.461 85.3113 616.621 85.5613 616.921 85.7513C617.231 85.9313 617.711 86.1312 618.371 86.3412C619.031 86.5612 619.561 86.7713 619.971 86.9813C620.381 87.1813 620.731 87.4813 621.031 87.8613C621.331 88.2513 621.481 88.7413 621.481 89.3513C621.481 89.9613 621.331 90.4613 621.041 90.9313C620.751 91.4013 620.321 91.7813 619.761 92.0613C619.201 92.3413 618.541 92.4813 617.781 92.4813C617.021 92.4813 616.371 92.3613 615.781 92.1213L615.771 92.1113Z" fill="white"/>
<path d="M625.48 84.1812V86.2411H628.8V88.1511H625.48V90.3812H629.23V92.3712H623V82.2012H629.23V84.1912H625.48V84.1812Z" fill="white"/>
<path d="M636.03 92.3712L633.91 88.5311H633.32V92.3712H630.84V82.2012H635C635.8 82.2012 636.49 82.3412 637.05 82.6212C637.61 82.9012 638.04 83.2811 638.32 83.7711C638.6 84.2611 638.74 84.8011 638.74 85.4011C638.74 86.0811 638.55 86.6811 638.17 87.2111C637.79 87.7411 637.23 88.1211 636.48 88.3411L638.83 92.3712H636.03ZM633.32 86.7811H634.86C635.31 86.7811 635.65 86.6712 635.88 86.4512C636.11 86.2312 636.22 85.9112 636.22 85.5112C636.22 85.1112 636.11 84.8211 635.88 84.6011C635.65 84.3811 635.31 84.2711 634.86 84.2711H633.32V86.7911V86.7811Z" fill="white"/>
<path d="M649.841 82.2012L646.232 92.3712H643.131L639.521 82.2012H642.161L644.681 89.8812L647.221 82.2012H649.841Z" fill="white"/>
<path d="M653.341 82.2012V92.3712H650.861V82.2012H653.341Z" fill="white"/>
<path d="M655.371 84.582C655.801 83.792 656.411 83.1821 657.191 82.7421C657.971 82.3021 658.851 82.082 659.831 82.082C661.041 82.082 662.071 82.4021 662.931 83.0421C663.791 83.6821 664.361 84.552 664.651 85.652H661.931C661.731 85.232 661.441 84.9021 661.071 84.6821C660.701 84.4621 660.281 84.3521 659.801 84.3521C659.041 84.3521 658.421 84.622 657.941 85.152C657.471 85.682 657.231 86.392 657.231 87.282C657.231 88.172 657.471 88.882 657.941 89.412C658.411 89.942 659.031 90.212 659.801 90.212C660.271 90.212 660.701 90.1021 661.071 89.8821C661.441 89.6621 661.731 89.332 661.931 88.912H664.651C664.361 90.012 663.791 90.8821 662.931 91.5121C662.071 92.1421 661.041 92.462 659.831 92.462C658.841 92.462 657.961 92.2421 657.191 91.8021C656.411 91.3621 655.811 90.752 655.371 89.972C654.931 89.192 654.721 88.2921 654.721 87.2921C654.721 86.2921 654.941 85.3921 655.371 84.6021V84.582Z" fill="white"/>
<path d="M668.66 84.1812V86.2411H671.98V88.1511H668.66V90.3812H672.41V92.3712H666.18V82.2012H672.41V84.1912H668.66V84.1812Z" fill="white"/>
<path d="M675.7 92.1113C675.11 91.8713 674.64 91.5113 674.29 91.0413C673.94 90.5713 673.75 90.0012 673.73 89.3312H676.37C676.41 89.7112 676.54 89.9913 676.76 90.1913C676.98 90.3913 677.27 90.4913 677.63 90.4913C677.99 90.4913 678.29 90.4113 678.5 90.2413C678.71 90.0713 678.82 89.8413 678.82 89.5413C678.82 89.2913 678.74 89.0813 678.57 88.9213C678.4 88.7613 678.19 88.6213 677.95 88.5113C677.7 88.4013 677.35 88.2812 676.9 88.1512C676.24 87.9512 675.71 87.7413 675.29 87.5413C674.87 87.3413 674.52 87.0413 674.22 86.6413C673.92 86.2413 673.77 85.7312 673.77 85.0912C673.77 84.1412 674.11 83.4013 674.8 82.8713C675.49 82.3313 676.38 82.0713 677.48 82.0713C678.58 82.0713 679.5 82.3413 680.19 82.8713C680.88 83.4113 681.24 84.1513 681.29 85.1113H678.61C678.59 84.7813 678.47 84.5212 678.25 84.3312C678.03 84.1412 677.74 84.0513 677.39 84.0513C677.09 84.0513 676.85 84.1313 676.67 84.2913C676.49 84.4513 676.39 84.6813 676.39 84.9813C676.39 85.3113 676.55 85.5613 676.85 85.7513C677.16 85.9313 677.64 86.1312 678.3 86.3412C678.96 86.5612 679.49 86.7713 679.9 86.9813C680.31 87.1813 680.66 87.4813 680.96 87.8613C681.26 88.2513 681.41 88.7413 681.41 89.3513C681.41 89.9613 681.26 90.4613 680.97 90.9313C680.68 91.4013 680.25 91.7813 679.69 92.0613C679.13 92.3413 678.47 92.4813 677.71 92.4813C676.95 92.4813 676.3 92.3613 675.71 92.1213L675.7 92.1113Z" fill="white"/>
<path d="M691.9 92.3712L688.48 87.8812V92.3712H686V82.2012H688.48V86.6611L691.87 82.2012H694.78L690.84 87.1812L694.93 92.3712H691.9Z" fill="white"/>
<path d="M696.201 92.102C695.921 91.842 695.791 91.532 695.791 91.152C695.791 90.772 695.931 90.442 696.201 90.182C696.481 89.922 696.831 89.792 697.271 89.792C697.711 89.792 698.051 89.922 698.321 90.182C698.601 90.442 698.731 90.762 698.731 91.152C698.731 91.542 698.591 91.842 698.321 92.102C698.051 92.362 697.691 92.482 697.271 92.482C696.851 92.482 696.481 92.352 696.201 92.102Z" fill="white"/>
<path d="M701.87 92.1113C701.28 91.8713 700.81 91.5113 700.46 91.0413C700.11 90.5713 699.92 90.0012 699.9 89.3312H702.54C702.58 89.7112 702.71 89.9913 702.93 90.1913C703.15 90.3913 703.44 90.4913 703.8 90.4913C704.16 90.4913 704.46 90.4113 704.67 90.2413C704.88 90.0713 704.99 89.8413 704.99 89.5413C704.99 89.2913 704.91 89.0813 704.74 88.9213C704.57 88.7613 704.36 88.6213 704.12 88.5113C703.87 88.4013 703.52 88.2812 703.07 88.1512C702.41 87.9512 701.88 87.7413 701.46 87.5413C701.04 87.3413 700.69 87.0413 700.39 86.6413C700.09 86.2413 699.94 85.7312 699.94 85.0912C699.94 84.1412 700.28 83.4013 700.97 82.8713C701.66 82.3313 702.55 82.0713 703.65 82.0713C704.75 82.0713 705.67 82.3413 706.36 82.8713C707.05 83.4113 707.41 84.1513 707.46 85.1113H704.78C704.76 84.7813 704.64 84.5212 704.42 84.3312C704.2 84.1412 703.91 84.0513 703.56 84.0513C703.26 84.0513 703.02 84.1313 702.84 84.2913C702.66 84.4513 702.56 84.6813 702.56 84.9813C702.56 85.3113 702.72 85.5613 703.02 85.7513C703.33 85.9313 703.81 86.1312 704.47 86.3412C705.13 86.5612 705.66 86.7713 706.07 86.9813C706.48 87.1813 706.83 87.4813 707.13 87.8613C707.43 88.2513 707.58 88.7413 707.58 89.3513C707.58 89.9613 707.43 90.4613 707.14 90.9313C706.85 91.4013 706.42 91.7813 705.86 92.0613C705.3 92.3413 704.64 92.4813 703.88 92.4813C703.12 92.4813 702.47 92.3613 701.88 92.1213L701.87 92.1113Z" fill="white"/>
<path d="M709.191 92.102C708.911 91.842 708.781 91.532 708.781 91.152C708.781 90.772 708.921 90.442 709.191 90.182C709.471 89.922 709.821 89.792 710.261 89.792C710.701 89.792 711.041 89.922 711.311 90.182C711.591 90.442 711.721 90.762 711.721 91.152C711.721 91.542 711.581 91.842 711.311 92.102C711.041 92.362 710.681 92.482 710.261 92.482C709.841 92.482 709.471 92.352 709.191 92.102Z" fill="white"/>
<path d="M713.422 84.582C713.852 83.792 714.462 83.1821 715.242 82.7421C716.022 82.3021 716.901 82.082 717.881 82.082C719.091 82.082 720.122 82.4021 720.982 83.0421C721.842 83.6821 722.411 84.552 722.701 85.652H719.982C719.782 85.232 719.491 84.9021 719.121 84.6821C718.751 84.4621 718.332 84.3521 717.852 84.3521C717.092 84.3521 716.472 84.622 715.992 85.152C715.522 85.682 715.281 86.392 715.281 87.282C715.281 88.172 715.522 88.882 715.992 89.412C716.462 89.942 717.082 90.212 717.852 90.212C718.322 90.212 718.751 90.1021 719.121 89.8821C719.491 89.6621 719.782 89.332 719.982 88.912H722.701C722.411 90.012 721.842 90.8821 720.982 91.5121C720.122 92.1421 719.091 92.462 717.881 92.462C716.891 92.462 716.012 92.2421 715.242 91.8021C714.462 91.3621 713.862 90.752 713.422 89.972C712.982 89.192 712.771 88.2921 712.771 87.2921C712.771 86.2921 712.992 85.3921 713.422 84.6021V84.582Z" fill="white"/>
<path d="M728.44 91.9216C727.92 90.5016 727.66 88.9715 727.66 87.3315C727.66 85.6915 727.93 84.1216 728.47 82.6716C729.01 81.2316 729.78 80.0516 730.77 79.1416H733.2V79.3716C732.19 80.3716 731.4 81.5816 730.85 82.9916C730.3 84.4016 730.02 85.8415 730.02 87.3315C730.02 88.8215 730.29 90.2316 730.82 91.6016C731.35 92.9716 732.1 94.1616 733.07 95.1616V95.3916H730.62C729.68 94.4916 728.95 93.3316 728.43 91.9116L728.44 91.9216Z" fill="white"/>
<path d="M734.441 84.582C734.871 83.792 735.481 83.1821 736.261 82.7421C737.041 82.3021 737.921 82.082 738.901 82.082C740.111 82.082 741.141 82.4021 742.001 83.0421C742.861 83.6821 743.431 84.552 743.721 85.652H741.001C740.801 85.232 740.511 84.9021 740.141 84.6821C739.771 84.4621 739.351 84.3521 738.871 84.3521C738.111 84.3521 737.491 84.622 737.011 85.152C736.541 85.682 736.301 86.392 736.301 87.282C736.301 88.172 736.541 88.882 737.011 89.412C737.481 89.942 738.101 90.212 738.871 90.212C739.341 90.212 739.771 90.1021 740.141 89.8821C740.511 89.6621 740.801 89.332 741.001 88.912H743.721C743.431 90.012 742.861 90.8821 742.001 91.5121C741.141 92.1421 740.111 92.462 738.901 92.462C737.911 92.462 737.031 92.2421 736.261 91.8021C735.481 91.3621 734.881 90.752 734.441 89.972C734.001 89.192 733.791 88.2921 733.791 87.2921C733.791 86.2921 734.011 85.3921 734.441 84.6021V84.582Z" fill="white"/>
<path d="M747.73 90.4611H750.98V92.3712H745.26V82.2012H747.74V90.4611H747.73Z" fill="white"/>
<path d="M754.34 91.8018C753.54 91.3618 752.91 90.7418 752.44 89.9418C751.97 89.1418 751.74 88.2518 751.74 87.2518C751.74 86.2518 751.97 85.3618 752.44 84.5718C752.91 83.7818 753.54 83.1617 754.34 82.7217C755.14 82.2817 756.01 82.0518 756.97 82.0518C757.93 82.0518 758.8 82.2717 759.6 82.7217C760.4 83.1717 761.02 83.7818 761.48 84.5718C761.94 85.3618 762.17 86.2618 762.17 87.2518C762.17 88.2418 761.94 89.1418 761.47 89.9418C761.01 90.7418 760.38 91.3618 759.59 91.8018C758.8 92.2418 757.92 92.4717 756.97 92.4717C756.02 92.4717 755.14 92.2518 754.34 91.8018ZM758.92 89.4017C759.41 88.8617 759.65 88.1518 759.65 87.2618C759.65 86.3718 759.41 85.6418 758.92 85.1118C758.43 84.5718 757.78 84.3118 756.97 84.3118C756.16 84.3118 755.49 84.5818 755.01 85.1118C754.52 85.6418 754.28 86.3617 754.28 87.2717C754.28 88.1817 754.52 88.8918 755.01 89.4218C755.5 89.9618 756.15 90.2217 756.97 90.2217C757.79 90.2217 758.43 89.9517 758.92 89.4117V89.4017Z" fill="white"/>
<path d="M765.23 92.1113C764.64 91.8713 764.17 91.5113 763.82 91.0413C763.47 90.5713 763.28 90.0012 763.26 89.3312H765.9C765.94 89.7112 766.07 89.9913 766.29 90.1913C766.51 90.3913 766.8 90.4913 767.16 90.4913C767.52 90.4913 767.82 90.4113 768.03 90.2413C768.24 90.0713 768.35 89.8413 768.35 89.5413C768.35 89.2913 768.27 89.0813 768.1 88.9213C767.93 88.7613 767.72 88.6213 767.48 88.5113C767.23 88.4013 766.88 88.2812 766.43 88.1512C765.77 87.9512 765.24 87.7413 764.82 87.5413C764.4 87.3413 764.05 87.0413 763.75 86.6413C763.45 86.2413 763.3 85.7312 763.3 85.0912C763.3 84.1412 763.64 83.4013 764.33 82.8713C765.02 82.3313 765.91 82.0713 767.01 82.0713C768.11 82.0713 769.03 82.3413 769.72 82.8713C770.41 83.4113 770.77 84.1513 770.82 85.1113H768.14C768.12 84.7813 768 84.5212 767.78 84.3312C767.56 84.1412 767.27 84.0513 766.92 84.0513C766.62 84.0513 766.38 84.1313 766.2 84.2913C766.02 84.4513 765.92 84.6813 765.92 84.9813C765.92 85.3113 766.08 85.5613 766.38 85.7513C766.69 85.9313 767.17 86.1312 767.83 86.3412C768.49 86.5612 769.02 86.7713 769.43 86.9813C769.84 87.1813 770.19 87.4813 770.49 87.8613C770.79 88.2513 770.94 88.7413 770.94 89.3513C770.94 89.9613 770.79 90.4613 770.5 90.9313C770.21 91.4013 769.78 91.7813 769.22 92.0613C768.66 92.3413 768 92.4813 767.24 92.4813C766.48 92.4813 765.83 92.3613 765.24 92.1213L765.23 92.1113Z" fill="white"/>
<path d="M774.941 84.1812V86.2411H778.261V88.1511H774.941V90.3812H778.691V92.3712H772.461V82.2012H778.691V84.1912H774.941V84.1812Z" fill="white"/>
<path d="M786.931 82.8311C787.731 83.2511 788.351 83.8512 788.791 84.6212C789.231 85.3912 789.451 86.2711 789.451 87.2811C789.451 88.2911 789.231 89.1612 788.791 89.9312C788.351 90.7012 787.731 91.3011 786.921 91.7311C786.111 92.1611 785.181 92.3712 784.121 92.3712H780.311V82.2012H784.121C785.191 82.2012 786.131 82.4111 786.931 82.8411V82.8311ZM786.141 89.4611C786.661 88.9511 786.921 88.2211 786.921 87.2911C786.921 86.3611 786.661 85.6211 786.141 85.1011C785.621 84.5811 784.891 84.3212 783.951 84.3212H782.781V90.2311H783.951C784.891 90.2311 785.621 89.9711 786.141 89.4611Z" fill="white"/>
<path d="M790.171 95.4014V95.1714C791.141 94.1714 791.881 92.9814 792.421 91.6114C792.951 90.2414 793.221 88.8114 793.221 87.3414C793.221 85.8714 792.941 84.4114 792.391 83.0014C791.841 81.5914 791.061 80.3914 790.041 79.3814V79.1514H792.471C793.461 80.0614 794.231 81.2314 794.771 82.6814C795.311 84.1214 795.581 85.6814 795.581 87.3414C795.581 89.0014 795.321 90.5114 794.801 91.9314C794.281 93.3514 793.551 94.5114 792.611 95.4114H790.161L790.171 95.4014Z" fill="white"/>
<path d="M40.59 50.402H37.98C37.98 52.172 37.69 53.8721 37.11 55.5021C36.53 57.1321 35.69 58.6421 34.6 60.0421C33.51 61.4321 32.17 62.682 30.58 63.772C28.99 64.862 27.2 65.742 25.21 66.402C23.39 66.982 21.58 67.4321 19.8 67.7521C18.02 68.0721 16.24 68.2321 14.47 68.2321C9.52 68.2321 5.87 67.142 3.52 64.962C1.17 62.782 0 59.5021 0 55.1421C0 52.6521 0.440002 50.1321 1.33 47.5621C2.21 44.9921 3.46001 42.6021 5.06001 40.3921C6.11001 38.9521 6.81001 38.292 7.17001 38.402C7.28001 38.432 7.34001 38.512 7.34001 38.652C7.34001 38.842 6.61 40.492 5.14 43.582C3.68 46.732 2.94 49.4421 2.94 51.7021C2.94 53.1121 3.17 54.4121 3.64 55.6021C4.11 56.7921 4.84001 57.8121 5.84001 58.6721C6.84001 59.5321 8.10001 60.192 9.63 60.662C11.16 61.132 13 61.3621 15.12 61.3621C16.89 61.3621 18.73 61.1821 20.66 60.8221C22.58 60.4621 24.66 59.9221 26.9 59.2021C27.48 58.9821 28.16 58.6721 28.93 58.2921C29.7 57.9021 30.44 57.5221 31.13 57.1321C31.82 56.7421 32.42 56.382 32.91 56.032C33.41 55.682 33.67 55.4421 33.7 55.3121C33.75 55.0121 33.8 54.6921 33.82 54.3821C33.85 54.0621 33.86 53.7221 33.86 53.3621C33.86 52.0321 33.67 50.612 33.28 49.092C32.89 47.572 32.3 45.9621 31.5 44.2421C30.95 43.0821 30.45 42.1521 30.01 41.4421C29.57 40.7321 29.19 40.252 28.89 39.972L33.58 33.4221C33.72 33.6721 34.06 34.3121 34.62 35.3521C35.17 36.3921 35.86 37.8321 36.69 39.6821C36.91 40.1221 37.09 40.6421 37.23 41.2321C37.37 41.8221 37.51 42.4821 37.64 43.2021H43.69C44.24 43.2021 44.78 43.192 45.31 43.162C45.83 43.132 46.36 43.0921 46.89 43.0421C47.11 42.5421 47.25 41.7621 47.3 40.6821C47.33 40.0721 47.2 39.0121 46.93 37.4921C47.26 36.9921 47.66 36.472 48.13 35.912C48.6 35.362 49.09 34.812 49.6 34.272C50.11 33.732 50.61 33.212 51.09 32.722C51.57 32.222 52 31.8121 52.36 31.4821C52.39 32.2021 52.42 32.7721 52.44 33.2021C52.47 33.6321 52.49 33.9121 52.52 34.0521C52.52 35.4321 52.38 36.822 52.11 38.212C51.83 39.612 51.41 41.022 50.83 42.462C50.77 42.602 50.94 42.7521 51.33 42.9221C51.72 43.0921 52.23 43.252 52.86 43.402C53.49 43.552 54.2 43.6821 54.99 43.7921C55.78 43.9021 56.54 43.962 57.28 43.962C59.15 43.962 60.83 43.7321 62.32 43.2521C62.51 43.1721 62.64 42.992 62.69 42.712C62.72 42.602 62.72 42.4921 62.71 42.3821C62.7 42.2721 62.68 42.1521 62.65 42.0121C62.62 41.6521 62.53 41.1721 62.38 40.5621C62.23 39.9521 62.05 39.362 61.84 38.782C61.63 38.202 61.43 37.682 61.22 37.212C61.01 36.742 60.84 36.4421 60.7 36.3021L66.24 30.6221C66.46 31.2821 66.66 32.022 66.85 32.842C67.03 33.662 67.18 34.512 67.31 35.412C67.44 36.312 67.53 37.2321 67.58 38.1921C67.63 39.1521 67.66 40.0721 67.66 40.9921C67.66 42.1221 67.64 43.1221 67.6 43.9921C67.56 44.8621 67.48 45.6321 67.37 46.2921C67.26 46.9521 67.13 47.532 66.98 48.032C66.83 48.532 66.64 48.9721 66.42 49.3621C65.59 49.9121 64.69 50.2721 63.72 50.4421C62.75 50.6121 61.59 50.6921 60.24 50.6921C58.64 50.6921 56.9 50.5621 55.02 50.3021C53.14 50.0421 51.21 49.552 49.22 48.832C48.86 48.722 48.54 48.6121 48.27 48.5021C47.99 48.3921 47.74 48.292 47.52 48.212C45.53 49.592 43.22 50.3421 40.6 50.4521L40.59 50.402Z" fill="white"/>
<path d="M77.4004 62.5823C79.2204 62.5023 81.0304 62.1223 82.8104 61.4623C84.5904 60.8023 86.2404 59.9123 87.7604 58.8123C89.2804 57.7023 90.6104 56.4324 91.7604 55.0023C92.9104 53.5623 93.7704 52.0424 94.3504 50.4424C94.0504 50.4724 93.7404 50.4823 93.4404 50.4823H92.4904C91.2204 50.4223 90.0004 50.2524 88.8204 49.9424C87.6504 49.6424 86.6004 49.2024 85.6704 48.6424C84.7404 48.0724 84.0004 47.4023 83.4304 46.6123C82.8604 45.8223 82.5504 44.9324 82.5004 43.9424C82.4404 41.9224 82.6204 39.9423 83.0204 37.9923C83.4204 36.0423 83.9904 34.3023 84.7404 32.7723C85.4904 31.2423 86.3604 30.0023 87.3504 29.0623C88.3404 28.1223 89.4104 27.6523 90.5404 27.6523C92.0904 27.6523 93.4004 28.6723 94.4804 30.7223C95.9204 32.9023 96.9904 35.1223 97.7104 37.3723C98.4304 39.6223 98.7904 41.8723 98.7904 44.1023C98.7904 47.4423 98.2104 50.6723 97.0504 53.7723C95.8904 56.8723 94.0904 59.7724 91.6604 62.4524C87.8704 66.6524 83.9504 68.8723 79.8904 69.1223C75.4404 69.2923 70.8404 66.6323 66.0904 61.1623C64.3004 59.0623 63.4004 57.5423 63.4004 56.6023C63.4004 56.4623 63.4404 56.3523 63.5204 56.2723C64.1604 56.8223 64.8504 57.3923 65.5904 57.9723C66.3404 58.5523 67.1304 59.0923 67.9704 59.6123C68.8104 60.1223 69.7004 60.5923 70.6204 61.0223C71.5404 61.4523 72.5104 61.7723 73.5004 61.9923C74.7204 62.4323 76.0104 62.6324 77.4004 62.5724V62.5823ZM94.8404 42.9424V42.8623C94.8404 42.2223 94.6704 41.5023 94.3204 40.6823C93.9704 39.8723 93.5304 39.1024 92.9904 38.3824C92.4504 37.6624 91.8404 37.0523 91.1704 36.5623C90.4904 36.0623 89.8404 35.7923 89.2004 35.7323C88.8104 35.7323 88.4004 35.9223 87.9604 36.2923C87.5204 36.6623 87.1104 37.1023 86.7404 37.6023C86.3704 38.1023 86.0804 38.5924 85.8704 39.0724C85.6604 39.5524 85.6104 39.8923 85.7204 40.0923C86.7704 42.2423 88.8804 43.3923 92.0604 43.5323C92.7204 43.5623 93.2304 43.5623 93.5904 43.5523C93.9504 43.5423 94.2204 43.5123 94.4004 43.4723C94.5804 43.4323 94.7004 43.3723 94.7504 43.2823C94.8104 43.2023 94.8304 43.0924 94.8304 42.9524L94.8404 42.9424Z" fill="white"/>
<path d="M118.089 39.9619L121.359 32.9219C122.739 34.1919 123.919 35.4319 124.899 36.6319C125.879 37.8319 126.689 39.0519 127.319 40.2819C127.949 41.5119 128.419 42.7719 128.709 44.0519C128.999 45.3319 129.149 46.7019 129.149 48.1319C129.149 49.4619 128.979 50.8619 128.629 52.3419C128.279 53.8219 127.769 55.2919 127.099 56.7519C126.419 58.2119 125.589 59.6419 124.589 61.0219C123.599 62.4018 122.459 63.6619 121.189 64.7919C119.919 65.9219 118.509 66.8819 116.959 67.6719C115.409 68.4619 113.749 69.0019 111.989 69.3119C111.579 69.3919 111.159 69.4618 110.749 69.5219C110.339 69.5718 109.889 69.6219 109.419 69.6419C108.449 69.6119 107.469 69.4219 106.459 69.0619C105.449 68.7019 104.439 68.2019 103.439 67.5719C102.429 66.9319 101.449 66.1719 100.499 65.2919C99.549 64.4119 98.659 63.4419 97.829 62.3919C96.529 60.7019 96.019 59.7119 96.299 59.4119C96.239 59.4619 97.349 60.0019 99.609 61.0319C102.339 62.2719 105.009 62.8919 107.609 62.8919C114.239 62.8919 119.989 59.0418 124.849 51.3318C125.129 50.9418 125.259 50.4519 125.259 49.8419C125.259 49.1819 125.049 48.4019 124.619 47.5219C124.189 46.6419 123.629 45.7418 122.939 44.8318C122.249 43.9218 121.479 43.0319 120.639 42.1819C119.799 41.3219 118.949 40.5919 118.089 39.9819V39.9619Z" fill="white"/>
<path d="M152.521 43.2323L152.561 50.3224H148.831C146.921 50.3224 145.381 50.1223 144.191 49.7223C143.001 49.3223 142.061 48.6223 141.351 47.6123C140.651 46.6023 140.131 45.2323 139.801 43.4923C139.471 41.7523 139.211 39.5324 139.011 36.8224L136.811 8.48233C140.401 4.14233 142.311 2.04234 142.531 2.18234C142.641 2.43234 142.821 5.73234 143.071 12.0823L144.231 37.4823C144.291 38.7223 144.411 39.7223 144.601 40.4823C144.791 41.2423 145.101 41.8223 145.511 42.2223C145.921 42.6223 146.491 42.8923 147.211 43.0323C147.931 43.1723 148.851 43.2423 149.991 43.2423H152.521V43.2323Z" fill="white"/>
<path d="M150.66 50.3224V43.2324H166.61V50.3224H150.66Z" fill="white"/>
<path d="M164.74 50.3224V43.2324H180.69V50.3224H164.74Z" fill="white"/>
<path d="M178.83 50.3224V43.2324H194.78V50.3224H178.83Z" fill="white"/>
<path d="M193 50.3219V43.2319H194.66C194.41 43.2619 194.5 43.2919 194.93 43.3319C195.36 43.3719 195.99 43.4219 196.82 43.4719C197.65 43.5319 198.62 43.5919 199.74 43.6619C200.86 43.7319 201.99 43.7919 203.14 43.8519C204.29 43.9119 205.39 43.9519 206.45 43.9719C207.51 44.0019 208.4 44.0119 209.12 44.0119C210.09 44.0119 211.05 44.0019 212 43.9719C212.95 43.9419 213.86 43.9019 214.73 43.8519C215.6 43.8019 216.41 43.7219 217.15 43.6219C217.9 43.5219 218.53 43.3919 219.06 43.2319C219.14 43.1219 218.9 42.7819 218.33 42.2219C217.76 41.6519 216.97 40.9119 215.95 39.9819C214.93 39.0519 213.7 37.9619 212.26 36.6919C210.82 35.4219 209.28 34.0419 207.62 32.5519C203.81 29.3219 201.76 27.7619 201.49 27.8719L200.87 28.6219L200.08 29.6119L194.98 24.5119C194.43 23.9619 194.15 23.2119 194.15 22.2719C194.15 20.7019 194.87 18.9419 196.3 17.0119C196.41 16.7619 196.63 16.5319 196.96 16.3119C200.22 14.1019 209.67 9.90191 225.3 3.71191L222.81 10.9619C218.67 12.4519 214.75 13.9019 211.06 15.2919C207.37 16.6919 203.87 18.0519 200.56 19.3719C200.17 19.5119 200.01 19.6719 200.06 19.8719C200.06 19.9319 200.42 20.2319 201.14 20.7819C201.86 21.3319 202.83 22.0819 204.06 23.0219C205.29 23.9619 206.7 25.0819 208.31 26.3819C209.91 27.6819 211.58 29.1119 213.32 30.6919C215.23 32.4019 217.14 34.2119 219.06 36.1219C220.98 38.0319 222.93 40.0619 224.92 42.2119C225 42.2919 225.06 42.4219 225.09 42.5819C225.12 42.7519 225.15 42.9719 225.17 43.2419H227.82V50.3319H223.59L222.6 49.6319C221.69 49.8219 220.15 50.0419 217.98 50.2719C215.81 50.5019 213.17 50.7319 210.04 50.9519C209.57 50.9819 209.1 50.9919 208.63 50.9919H207.22C206.42 50.9919 205.42 50.9619 204.24 50.9119C203.05 50.8519 201.87 50.7919 200.7 50.7019C199.53 50.6219 198.45 50.5419 197.47 50.4719C196.49 50.4019 195.79 50.3719 195.38 50.3719C195.19 50.3419 195.05 50.3319 194.97 50.3319H192.98L193 50.3219Z" fill="white"/>
<path d="M225.981 50.3224V43.2324H227.841C227.951 43.2324 228.361 43.2624 229.061 43.3124C229.761 43.3724 230.571 43.4224 231.461 43.4824C232.361 43.5424 233.241 43.5924 234.111 43.6524C234.981 43.7124 235.651 43.7324 236.121 43.7324C241.181 43.7324 243.741 43.4824 243.831 42.9824C243.831 42.2924 243.651 41.4824 243.291 40.5424C242.791 38.8824 241.561 36.8924 239.601 34.5724C239.791 34.1024 240.051 33.5324 240.371 32.8724C240.691 32.2124 241.031 31.5324 241.391 30.8424C241.751 30.1524 242.101 29.4924 242.451 28.8524C242.791 28.2224 243.081 27.6624 243.301 27.1924C243.381 27.1924 243.561 27.3824 243.841 27.7524C244.121 28.1224 244.451 28.6424 244.831 29.3024C245.221 29.9624 245.631 30.7724 246.071 31.7224C246.511 32.6724 246.951 33.7424 247.401 34.9324C248.671 38.5524 249.311 41.7024 249.311 44.3824C249.311 46.3724 248.951 47.8924 248.231 48.9424C248.151 49.0824 247.801 49.2424 247.191 49.4224C246.581 49.6024 245.841 49.7724 244.951 49.9424C244.071 50.1124 243.111 50.2524 242.071 50.3824C241.031 50.5024 240.051 50.5924 239.111 50.6524C238.581 50.6824 238.041 50.6924 237.471 50.6924H235.671C234.921 50.6924 234.151 50.6724 233.351 50.6324C232.551 50.5924 231.791 50.5524 231.071 50.5124C230.351 50.4724 229.711 50.4324 229.141 50.3924C228.571 50.3524 228.141 50.3324 227.831 50.3324H225.971L225.981 50.3224ZM227.231 66.8924L230.541 61.7924L237.091 66.1024L239.781 62.0824L246.621 66.5124L243.351 71.4824L236.801 67.1724L234.111 71.2724L227.231 66.8824V66.8924Z" fill="white"/>
<path d="M262.701 1.88205C262.781 2.96205 262.871 4.26207 262.971 5.78207C263.071 7.30207 263.181 9.08205 263.321 11.132L264.191 27.0821C264.251 27.6321 264.281 28.1721 264.291 28.7021C264.301 29.2221 264.341 29.7521 264.391 30.2721L264.471 41.9521C264.471 42.5021 264.461 43.052 264.431 43.592C264.401 44.132 264.361 44.692 264.311 45.272C263.511 46.602 262.631 47.9421 261.681 49.3121C260.731 50.6821 259.881 51.8921 259.131 52.9421V49.6021C259.131 48.4021 259.131 47.1821 259.151 45.9521C259.161 44.7221 259.171 43.5021 259.171 42.3021V38.8821C258.891 34.4921 258.591 30.3721 258.261 26.5121C257.931 22.6521 257.671 19.3221 257.471 16.5021L256.971 8.92206C258.131 7.43206 259.181 6.10205 260.121 4.94205C261.061 3.78205 261.921 2.76207 262.691 1.87207L262.701 1.88205Z" fill="white"/>
<path d="M5.23969 92.1024V92.0223H5.13968C4.79968 93.5923 4.20968 94.1324 2.85968 94.1324C1.25968 94.1324 0.429688 93.2223 0.429688 91.6523C0.429688 89.7923 1.53969 88.7524 3.25969 87.8924L5.14969 86.9424V86.0124H7.16969V91.4324C7.16969 92.1024 7.43969 92.3423 8.17969 92.3423H8.68968V94.3724L8.17969 94.8824C6.15969 94.8624 5.22969 93.8224 5.22969 92.1124L5.23969 92.1024ZM5.15968 90.7324V88.7024L3.90968 89.2924C2.70968 89.8624 2.11969 90.1724 2.11969 90.8124C2.11969 91.3724 2.43969 91.5923 3.41969 91.5923C4.71969 91.5923 5.15968 91.3724 5.15968 90.7324ZM2.35968 83.5323C2.35968 82.7423 2.77968 82.4023 3.35968 82.4023H3.69969C4.26969 82.4023 4.69969 82.7423 4.69969 83.5323C4.69969 84.3223 4.27969 84.6624 3.69969 84.6624H3.35968C2.78968 84.6624 2.35968 84.3223 2.35968 83.5323ZM5.01968 83.5323C5.01968 82.7423 5.43968 82.4023 6.01968 82.4023H6.35968C6.92968 82.4023 7.35968 82.7423 7.35968 83.5323C7.35968 84.3223 6.93968 84.6624 6.35968 84.6624H6.01968C5.44968 84.6624 5.01968 84.3223 5.01968 83.5323Z" fill="white"/>
<path d="M8.19922 92.842L8.70921 92.332H9.12921C10.0592 92.332 10.4792 91.962 10.4792 91.152V82.3721H12.5092V91.152C12.5092 91.962 12.8792 92.332 13.6892 92.332H14.2792V94.3621L13.7692 94.8721C11.9292 94.8721 11.0192 94.162 10.6992 92.592H10.5992C10.3092 94.162 9.59922 94.8721 8.19922 94.8721V92.842Z" fill="white"/>
<path d="M13.77 92.8424L14.28 92.3324H16.09L16.12 92.2524C15.28 91.3924 14.99 90.3924 14.99 89.5024C14.99 87.4724 16.32 85.8424 18.31 85.8424C20.3 85.8424 21.63 87.4824 21.63 89.5024C21.63 90.3924 21.34 91.3924 20.5 92.2524L20.53 92.3324H22.4V94.3624L21.89 94.8724H21.72C20.52 94.8724 19.34 94.6024 18.31 93.7924C17.28 94.6024 16.1 94.8724 14.9 94.8724H13.75V92.8424H13.77ZM20.04 89.8925C20.04 88.9625 19.31 88.3724 18.4 88.3724H18.2C17.29 88.3724 16.56 88.9625 16.56 89.8925C16.56 90.8225 17.17 91.4824 18.3 92.1224C19.43 91.4824 20.04 90.7925 20.04 89.8925ZM17.14 83.3624C17.14 82.5724 17.56 82.2324 18.14 82.2324H18.48C19.05 82.2324 19.48 82.5724 19.48 83.3624C19.48 84.1524 19.06 84.4924 18.48 84.4924H18.14C17.57 84.4924 17.14 84.1524 17.14 83.3624Z" fill="white"/>
<path d="M21.8989 92.8424L22.4089 92.3324H24.2189L24.2489 92.2524C23.4089 91.3924 23.1189 90.3924 23.1189 89.5024C23.1189 87.4724 24.4489 85.8424 26.4389 85.8424C28.4289 85.8424 29.7589 87.4824 29.7589 89.5024C29.7589 90.3924 29.4689 91.3924 28.6289 92.2524L28.6589 92.3324H30.5289V94.3624L30.0189 94.8724H29.8489C28.6489 94.8724 27.4689 94.6024 26.4389 93.7924C25.4089 94.6024 24.2289 94.8724 23.0289 94.8724H21.8789V92.8424H21.8989ZM23.9389 83.3624C23.9389 82.5724 24.3589 82.2324 24.9389 82.2324H25.2789C25.8489 82.2324 26.2789 82.5724 26.2789 83.3624C26.2789 84.1524 25.8589 84.4924 25.2789 84.4924H24.9389C24.3689 84.4924 23.9389 84.1524 23.9389 83.3624ZM28.1789 89.8925C28.1789 88.9625 27.4489 88.3724 26.5389 88.3724H26.3389C25.4289 88.3724 24.6989 88.9625 24.6989 89.8925C24.6989 90.8225 25.3089 91.4824 26.4389 92.1224C27.5689 91.4824 28.1789 90.7925 28.1789 89.8925ZM26.6089 83.3624C26.6089 82.5724 27.0289 82.2324 27.6089 82.2324H27.9489C28.5189 82.2324 28.9489 82.5724 28.9489 83.3624C28.9489 84.1524 28.5289 84.4924 27.9489 84.4924H27.6089C27.0389 84.4924 26.6089 84.1524 26.6089 83.3624Z" fill="white"/>
<path d="M32.5191 93.9227C32.0091 94.6127 31.2691 94.8727 30.0391 94.8727V92.8427L30.5491 92.3326C31.3891 92.3326 31.6791 92.1127 31.9291 91.4927L32.3991 90.3227C32.9691 88.8927 33.8291 87.7227 35.4391 87.7227C37.5291 87.7227 38.6291 89.4927 38.6291 92.4327V92.9227L37.0291 95.3027L32.5191 93.9227ZM33.4491 91.5727L36.8391 92.6027V92.4327C36.8391 91.0827 36.1291 90.2726 35.0191 90.2726C34.2891 90.2726 33.7491 90.6427 33.4791 91.4727L33.4491 91.5727Z" fill="white"/>
<path d="M44.0996 90.9319V88.502H49.1096V90.9319H44.0996Z" fill="white"/>
<path d="M54.6702 92.3323H63.3802C64.0702 92.3323 64.3902 92.0123 64.3902 91.3223V82.3623H66.4102V91.3223C66.4102 93.7323 65.4502 94.8623 63.3702 94.8623H54.6602V92.3323H54.6702ZM58.2802 89.6223L60.9302 88.3723L60.9002 88.2523H59.5502C58.6902 88.2523 58.2802 87.8823 58.2802 87.0723C58.2802 86.2623 58.8202 85.8723 59.7802 85.3223L60.8902 84.6823L61.5002 85.6923L59.4202 86.8523L59.4502 86.9923H60.7702C61.6602 86.9923 62.0702 87.3123 62.0702 88.0423C62.0702 88.8523 61.6102 89.3123 60.6702 89.7823L58.8302 90.7123L58.2702 89.6323L58.2802 89.6223Z" fill="white"/>
<path d="M68.5605 93.7027V93.3627C68.5605 92.5827 69.0305 92.0127 70.0405 92.0127C71.0505 92.0127 71.5305 92.5827 71.5305 93.3627V93.7027C71.5305 94.4827 71.0605 95.0527 70.0405 95.0527C69.0205 95.0527 68.5605 94.4827 68.5605 93.7027Z" fill="white"/>
<path d="M73.3398 95.9821C73.3398 93.1421 74.5498 91.7621 77.0498 91.7621H80.7498C80.6698 90.4421 79.8598 89.652 78.7598 89.652C77.6598 89.652 77.1098 90.2721 76.8998 91.1221L75.0598 90.532C75.4498 87.912 77.2498 87.1221 78.7198 87.1221C80.9998 87.1221 82.4498 88.942 82.4498 92.152V94.2921H77.0498C75.6998 94.2921 75.3598 94.6321 75.3598 95.9821V100.002H73.3398V95.9821Z" fill="white"/>
<path d="M84.1699 93.7027V93.3627C84.1699 92.5827 84.6399 92.0127 85.6499 92.0127C86.6599 92.0127 87.1399 92.5827 87.1399 93.3627V93.7027C87.1399 94.4827 86.6699 95.0527 85.6499 95.0527C84.6299 95.0527 84.1699 94.4827 84.1699 93.7027Z" fill="white"/>
<path d="M101.77 92.7225H101.67C101.5 94.1925 100.72 94.8625 99.5896 94.8625H98.9796C98.7296 97.6425 97.1696 98.9325 94.0996 98.9325C90.6596 98.9325 88.8496 97.2125 88.8496 94.3125C88.8496 93.3625 89.1496 92.2225 89.6396 91.0925L91.2596 91.5625C90.8196 92.4725 90.5296 93.3125 90.5296 93.9725C90.5296 95.3525 91.6096 96.2025 93.4196 96.2025H94.7696C96.4396 96.2025 97.2196 95.5125 97.2196 93.9925C97.2196 93.4825 97.0796 92.7225 96.9296 92.0225L96.5896 90.4525L98.4096 90.1025L98.7296 91.6525L98.8496 92.3425H100.18C101.18 92.3425 101.53 92.0425 101.53 91.1625V90.1025H103.39V91.1625C103.39 92.0925 103.74 92.5125 104.3 92.5125H104.47C104.94 92.5125 105.26 92.1725 105.26 91.4125C105.26 91.0925 105.19 90.6225 105.07 89.9325L104.92 89.0725L106.76 88.7725L106.9 89.6325C107 90.2925 107.05 90.8425 107.05 91.4225C107.05 93.9325 106.21 95.0825 104.38 95.0825C102.79 95.0825 102.03 94.3225 101.75 92.7325L101.77 92.7225ZM99.9796 87.6125C99.9796 86.8225 100.4 86.4825 100.98 86.4825H101.32C101.89 86.4825 102.32 86.8225 102.32 87.6125C102.32 88.4025 101.9 88.7425 101.32 88.7425H100.98C100.41 88.7425 99.9796 88.4025 99.9796 87.6125ZM101.32 85.1525C101.32 84.3625 101.74 84.0225 102.32 84.0225H102.66C103.23 84.0225 103.66 84.3625 103.66 85.1525C103.66 85.9425 103.24 86.2825 102.66 86.2825H102.32C101.75 86.2825 101.32 85.9425 101.32 85.1525ZM102.65 87.6125C102.65 86.8225 103.07 86.4825 103.65 86.4825H103.99C104.56 86.4825 104.99 86.8225 104.99 87.6125C104.99 88.4025 104.57 88.7425 103.99 88.7425H103.65C103.08 88.7425 102.65 88.4025 102.65 87.6125Z" fill="white"/>
<path d="M117.05 92.1024V92.0223H116.95C116.61 93.5923 116.02 94.1324 114.67 94.1324C113.07 94.1324 112.24 93.2223 112.24 91.6523C112.24 89.7923 113.35 88.7524 115.07 87.8924L116.96 86.9424V86.0124H118.98V91.4324C118.98 92.1024 119.25 92.3423 119.99 92.3423H120.5V94.3724L119.99 94.8824C117.97 94.8624 117.04 93.8224 117.04 92.1124L117.05 92.1024ZM116.97 90.7324V88.7024L115.72 89.2924C114.52 89.8624 113.93 90.1724 113.93 90.8124C113.93 91.3724 114.25 91.5923 115.23 91.5923C116.53 91.5923 116.97 91.3724 116.97 90.7324ZM114.17 83.5323C114.17 82.7423 114.59 82.4023 115.17 82.4023H115.51C116.08 82.4023 116.51 82.7423 116.51 83.5323C116.51 84.3223 116.09 84.6624 115.51 84.6624H115.17C114.6 84.6624 114.17 84.3223 114.17 83.5323ZM116.83 83.5323C116.83 82.7423 117.25 82.4023 117.83 82.4023H118.17C118.74 82.4023 119.17 82.7423 119.17 83.5323C119.17 84.3223 118.75 84.6624 118.17 84.6624H117.83C117.26 84.6624 116.83 84.3223 116.83 83.5323Z" fill="white"/>
<path d="M120.01 92.8422L120.52 92.3322H121.01C122.63 92.3322 123.09 92.0622 123.09 91.3022C123.09 90.9622 123.04 90.4622 122.89 89.6122L122.6 88.0422L124.44 87.7422L124.69 89.3122C124.79 89.9222 124.88 90.7422 124.88 91.3022C124.88 93.7522 123.77 94.8622 121.02 94.8622H120.02V92.8322L120.01 92.8422ZM120.63 97.3822C120.63 96.5922 121.05 96.2522 121.63 96.2522H121.97C122.54 96.2522 122.97 96.5922 122.97 97.3822C122.97 98.1722 122.55 98.5122 121.97 98.5122H121.63C121.06 98.5122 120.63 98.1722 120.63 97.3822ZM123.3 97.3822C123.3 96.5922 123.72 96.2522 124.3 96.2522H124.64C125.21 96.2522 125.64 96.5922 125.64 97.3822C125.64 98.1722 125.22 98.5122 124.64 98.5122H124.3C123.73 98.5122 123.3 98.1722 123.3 97.3822Z" fill="white"/>
<path d="M126.391 96.3821H127.071C129.091 96.3821 130.021 95.6021 130.021 93.6821C130.021 93.1721 129.941 92.6021 129.831 91.9421L129.481 89.7021L131.321 89.4121L131.571 90.9821C131.651 91.4721 131.701 91.9321 131.761 92.3321H133.311V94.3621L132.801 94.8721H131.751C131.361 97.3721 129.761 98.9221 127.081 98.9221H126.391V96.3922V96.3821Z" fill="white"/>
<path d="M132.799 92.8421L133.309 92.3321H134.469C136.999 92.3321 138.329 92.2621 140.279 91.3221L140.899 91.0221V90.9421L138.199 90.3721L135.649 89.7521V91.0221H133.709V89.7221C133.709 88.1321 134.399 87.4121 135.799 87.4121C136.149 87.4121 136.489 87.4821 137.559 87.7521L140.819 88.5921C141.709 88.8321 142.809 88.9821 143.809 88.9821H144.149V91.5121H142.969C142.989 92.1321 143.309 92.3521 144.149 92.3521H144.659V94.3821L144.149 94.8922C142.479 94.8722 141.529 94.1321 141.319 92.5421L141.249 92.5921C138.299 94.6021 136.639 94.8821 134.479 94.8821H132.809V92.8521L132.799 92.8421Z" fill="white"/>
<path d="M144.141 92.8422L144.651 92.3322H145.161C146.091 92.3322 146.511 91.9622 146.511 91.1522V88.7422H148.371V91.1522C148.371 91.9622 148.741 92.3322 149.551 92.3322H150.231V94.3622L149.721 94.8722C147.931 94.8722 147.041 94.1622 146.731 92.5922H146.631C146.331 94.1622 145.601 94.8722 144.151 94.8722V92.8422H144.141ZM146.271 97.3822C146.271 96.5922 146.691 96.2522 147.271 96.2522H147.611C148.181 96.2522 148.611 96.5922 148.611 97.3822C148.611 98.1722 148.191 98.5122 147.611 98.5122H147.271C146.701 98.5122 146.271 98.1722 146.271 97.3822Z" fill="white"/>
<path d="M149.709 92.8428L150.219 92.3328H150.959C151.799 92.3328 152.019 92.0128 152.019 91.3228V82.3828H154.049V91.3228C154.049 93.7328 153.219 94.8528 150.959 94.8628H149.709V92.8328V92.8428Z" fill="white"/>
<path d="M156.08 82.3828H158.1V94.8728H156.08V82.3828Z" fill="white"/>
<path d="M163.779 91.1524C163.779 90.2624 164.029 89.1124 164.459 88.0624L166.079 88.5324C165.709 89.2924 165.469 90.0324 165.469 90.5924C165.469 91.8924 166.469 92.3324 169.369 92.3324H171.729C174.679 92.3324 175.709 92.0624 175.709 91.3024C175.709 90.9624 175.659 90.4624 175.509 89.6124L175.219 88.0424L177.059 87.7424L177.309 89.3124C177.409 89.9224 177.499 90.7424 177.499 91.3024C177.499 94.3024 176.079 95.0624 170.379 95.0624C165.489 95.0624 163.779 94.0525 163.779 91.1425V91.1524ZM168.029 87.6124C168.029 86.8224 168.449 86.4824 169.029 86.4824H169.369C169.939 86.4824 170.369 86.8224 170.369 87.6124C170.369 88.4024 169.949 88.7424 169.369 88.7424H169.029C168.459 88.7424 168.029 88.4024 168.029 87.6124ZM170.689 87.6124C170.689 86.8224 171.109 86.4824 171.689 86.4824H172.029C172.599 86.4824 173.029 86.8224 173.029 87.6124C173.029 88.4024 172.609 88.7424 172.029 88.7424H171.689C171.119 88.7424 170.689 88.4024 170.689 87.6124Z" fill="white"/>
<path d="M179.02 91.4221V82.3721H181.04V91.082C181.04 92.092 181.39 92.332 182.39 92.332H182.9V94.3621L182.39 94.8721H182.37C180.11 94.8721 179.01 93.8621 179.01 91.4321L179.02 91.4221Z" fill="white"/>
<path d="M184.88 93.9227C184.37 94.6127 183.63 94.8727 182.4 94.8727V92.8427L182.91 92.3326C183.75 92.3326 184.04 92.1127 184.29 91.4927L184.76 90.3227C185.33 88.8927 186.19 87.7227 187.8 87.7227C189.89 87.7227 190.99 89.4927 190.99 92.4327V92.9227L189.39 95.3027L184.88 93.9227ZM185.8 91.5727L189.19 92.6027V92.4327C189.19 91.0827 188.48 90.2726 187.37 90.2726C186.64 90.2726 186.1 90.6427 185.83 91.4727L185.8 91.5727Z" fill="white"/>
<path d="M192.08 92.3928V91.2628H194.02V92.3428H196.33C197.07 92.3428 197.41 92.1428 197.41 91.6128C197.41 91.3728 197.29 91.0028 197.17 90.6628L195.68 86.3928L197.84 85.6328L199.54 90.5128C200.05 91.9828 200.47 92.3328 201.35 92.3328H201.86V94.3628L201.35 94.8728C199.48 94.8728 198.62 94.3828 197.81 92.5628L197.74 92.5928C197.45 94.2328 196.88 94.8728 195.43 94.8728H194.5C192.93 94.8728 192.07 94.1128 192.07 92.3928H192.08Z" fill="white"/>
<path d="M201.369 92.8422L201.879 92.3322H203.039C205.569 92.3322 206.899 92.2623 208.849 91.3223L209.469 91.0222V90.9423L206.769 90.3723L204.219 89.7523V91.0222H202.279V89.7222C202.279 88.1322 202.969 87.4122 204.369 87.4122C204.719 87.4122 205.059 87.4823 206.129 87.7523L209.389 88.5922C210.279 88.8322 211.379 88.9822 212.379 88.9822H212.719V91.5123H211.539C211.559 92.1323 211.879 92.3522 212.719 92.3522H213.229V94.3823L212.719 94.8923C211.049 94.8723 210.099 94.1322 209.889 92.5422L209.819 92.5922C206.869 94.6022 205.209 94.8823 203.049 94.8823H201.379V92.8522L201.369 92.8422ZM205.329 84.9122C205.329 84.1222 205.749 83.7822 206.329 83.7822H206.669C207.239 83.7822 207.669 84.1222 207.669 84.9122C207.669 85.7022 207.249 86.0422 206.669 86.0422H206.329C205.759 86.0422 205.329 85.7022 205.329 84.9122Z" fill="white"/>
<path d="M212.709 92.842L213.219 92.332H213.639C214.569 92.332 214.989 91.962 214.989 91.152V82.3721H217.019V91.152C217.019 91.962 217.389 92.332 218.199 92.332H218.789V94.3621L218.279 94.8721C216.439 94.8721 215.529 94.162 215.209 92.592H215.109C214.819 94.162 214.109 94.8721 212.709 94.8721V92.842Z" fill="white"/>
<path d="M218.279 92.8428L218.789 92.3328H219.529C220.369 92.3328 220.589 92.0128 220.589 91.3228V82.3828H222.619V91.3228C222.619 93.7328 221.789 94.8528 219.529 94.8628H218.279V92.8328V92.8428Z" fill="white"/>
<path d="M227.949 91.6428C227.949 90.3128 228.629 88.8228 229.989 87.5228L230.329 87.2028H232.789L233.139 87.5028C234.489 88.6528 235.059 89.7828 235.059 91.2628C235.059 93.6428 233.739 95.0628 231.499 95.0628C229.259 95.0628 227.939 93.7928 227.939 91.6328L227.949 91.6428ZM229.069 84.7228C229.069 83.9328 229.489 83.5928 230.069 83.5928H230.409C230.979 83.5928 231.409 83.9328 231.409 84.7228C231.409 85.5128 230.989 85.8528 230.409 85.8528H230.069C229.499 85.8528 229.069 85.5128 229.069 84.7228ZM231.679 92.5428C232.739 92.5428 233.379 92.1328 233.379 91.4828C233.379 91.0828 233.109 90.6428 231.899 89.6928L231.309 89.2328H231.179L230.689 89.7028C229.909 90.4628 229.639 90.8328 229.639 91.3928C229.639 92.0628 230.279 92.5428 231.339 92.5428H231.679ZM231.729 84.7228C231.729 83.9328 232.149 83.5928 232.729 83.5928H233.069C233.639 83.5928 234.069 83.9328 234.069 84.7228C234.069 85.5128 233.649 85.8528 233.069 85.8528H232.729C232.159 85.8528 231.729 85.5128 231.729 84.7228Z" fill="white"/>
<path d="M235.92 92.3928V91.2628H237.86V92.3428H240.17C240.91 92.3428 241.25 92.1428 241.25 91.6128C241.25 91.3728 241.13 91.0028 241.01 90.6628L239.52 86.3928L241.68 85.6328L243.38 90.5128C243.89 91.9828 244.31 92.3328 245.19 92.3328H245.7V94.3628L245.19 94.8728C243.32 94.8728 242.46 94.3828 241.65 92.5628L241.58 92.5928C241.29 94.2328 240.72 94.8728 239.27 94.8728H238.34C236.77 94.8728 235.91 94.1128 235.91 92.3928H235.92Z" fill="white"/>
<path d="M245.199 92.8421L245.709 92.3321H246.869C249.399 92.3321 250.729 92.2621 252.679 91.3221L253.299 91.0221V90.9421L250.599 90.3721L248.049 89.7521V91.0221H246.109V89.7221C246.109 88.1321 246.799 87.4121 248.199 87.4121C248.549 87.4121 248.889 87.4821 249.959 87.7521L253.219 88.5921C254.109 88.8321 255.209 88.9821 256.209 88.9821H256.549V91.5121H255.369C255.389 92.1321 255.709 92.3521 256.549 92.3521H257.059V94.3821L256.549 94.8922C254.879 94.8722 253.929 94.1321 253.719 92.5421L253.649 92.5921C250.699 94.6021 249.039 94.8821 246.879 94.8821H245.209V92.8521L245.199 92.8421Z" fill="white"/>
<path d="M256.549 92.8428L257.059 92.3328H257.569C258.499 92.3328 258.919 91.9628 258.919 91.1528V88.7428H260.779V91.1528C260.779 91.9628 261.149 92.3328 261.959 92.3328H262.639V94.3628L262.129 94.8728C260.339 94.8728 259.449 94.1628 259.139 92.5928H259.039C258.739 94.1628 258.009 94.8728 256.559 94.8728V92.8428H256.549ZM257.339 86.2628C257.339 85.4728 257.759 85.1328 258.339 85.1328H258.679C259.249 85.1328 259.679 85.4728 259.679 86.2628C259.679 87.0528 259.259 87.3928 258.679 87.3928H258.339C257.769 87.3928 257.339 87.0528 257.339 86.2628ZM260.009 86.2628C260.009 85.4728 260.429 85.1328 261.009 85.1328H261.349C261.919 85.1328 262.349 85.4728 262.349 86.2628C262.349 87.0528 261.929 87.3928 261.349 87.3928H261.009C260.439 87.3928 260.009 87.0528 260.009 86.2628Z" fill="white"/>
<path d="M266.469 95.7321C265.199 95.0421 264.599 94.8721 263.429 94.8721H262.109V92.842L262.619 92.332H263.629V82.3721H265.649V92.582C266.259 92.772 266.869 93.0521 267.679 93.4921L268.509 93.9521L267.309 96.1821L266.469 95.722V95.7321Z" fill="white"/>
<path d="M269.02 82.3828H271.04V94.8728H269.02V82.3828Z" fill="white"/>
</svg>
