<svg width="203" height="203" viewBox="0 0 203 203" fill="none" xmlns="http://www.w3.org/2000/svg">
<rect width="203" height="203" rx="21" fill="white"/>
<path d="M64.121 69.1499C78.188 78.9638 92.3727 88.978 105.25 100.583C112.495 107.11 122.981 116.605 121.956 127.35C121.108 136.198 109.373 149.275 102.905 155.201C102.116 155.932 96.7319 160.609 96.3078 160.68C93.9043 161.045 96.9086 155.437 97.2149 154.53C99.3709 148.097 99.3473 143.09 95.6715 137.305C79.5781 111.975 44.8231 95.8701 20.5298 79.4586C14.5213 74.6518 16.0293 68.6315 17.3842 61.9633C18.15 58.1579 20.8715 47.2247 22.9097 44.3736C24.4884 42.1587 25.3602 43.3251 27.1745 44.3383C39.545 51.2893 52.5045 61.0443 64.1327 69.1499H64.121Z" fill="#136497"/>
<path d="M185.976 109.478C186.117 110.114 185.622 110.267 185.304 110.644C180.191 116.935 173.323 122.696 167.526 128.363C150.408 139.049 132.217 148.132 114.439 157.687C113.143 157.239 111.447 157.934 112.012 156.261C112.33 155.319 118.41 150.842 119.682 149.864C128.188 143.302 137.625 136.752 146.673 130.967C159.232 122.932 172.38 115.569 185.976 109.478Z" fill="#DA4927"/>
</svg>
