<svg width="1013" height="259" viewBox="0 0 1013 259" fill="none" xmlns="http://www.w3.org/2000/svg">
<path d="M959.06 0H53.51C23.9572 0 0 23.9573 0 53.51V205.45C0 235.003 23.9572 258.96 53.51 258.96H959.06C988.613 258.96 1012.57 235.003 1012.57 205.45V53.51C1012.57 23.9573 988.613 0 959.06 0Z" fill="white"/>
<path d="M464.988 91.4704C476.928 99.8004 488.968 108.3 499.898 118.15C506.048 123.69 514.948 131.75 514.078 140.87C513.358 148.38 503.398 159.48 497.908 164.51C497.238 165.13 492.668 169.1 492.308 169.16C490.268 169.47 492.818 164.71 493.078 163.94C494.908 158.48 494.888 154.23 491.768 149.32C478.108 127.82 448.608 114.15 427.988 100.22C422.888 96.1404 424.168 91.0304 425.318 85.3704C425.968 82.1404 428.278 72.8604 430.008 70.4404C431.348 68.5604 432.088 69.5504 433.628 70.4104C444.128 76.3104 455.128 84.5904 464.998 91.4704H464.988Z" fill="#136497"/>
<path d="M568.418 125.7C568.538 126.24 568.118 126.37 567.848 126.69C563.508 132.03 557.678 136.92 552.758 141.73C538.228 150.8 522.788 158.51 507.698 166.62C506.598 166.24 505.158 166.83 505.638 165.41C505.908 164.61 511.068 160.81 512.148 159.98C519.368 154.41 527.378 148.85 535.058 143.94C545.718 137.12 556.878 130.87 568.418 125.7Z" fill="#DA4927"/>
<path d="M608.959 83.3806V80.3105H630.239V83.3806L620.359 84.5106H618.809L608.949 83.3806H608.959ZM620.369 126.541L630.249 127.671V130.741H608.969V127.671L618.829 126.541H620.379H620.369ZM616.039 103.671C616.039 95.9106 616.039 88.0705 615.809 80.3105H623.379C623.149 87.9205 623.149 95.7606 623.149 103.671V107.381C623.149 115.141 623.149 122.981 623.379 130.741H615.809C616.039 123.131 616.039 115.291 616.039 107.381V103.671Z" fill="#136497"/>
<path d="M643.17 83.3806V80.3105H664.42V83.3806L654.58 84.5106H653.03L643.17 83.3806ZM654.58 126.541L664.38 127.671V130.741H643.17V127.671L653.03 126.541H654.58ZM650.25 103.671C650.25 95.9106 650.25 88.0705 650.02 80.3105H657.35C657.12 87.9205 657.12 95.7606 657.12 103.671V109.261C657.12 115.151 657.12 122.981 657.35 130.751H650.02C650.25 123.141 650.25 115.301 650.25 107.391V103.681V103.671ZM653.67 112.601L680.06 80.3105H684.64L653.67 117.521V112.601ZM667.78 97.8606L686.02 130.751H678.56L663.64 102.821L667.78 97.8706V97.8606ZM670.34 127.671L679.45 126.541H680.62L689.71 127.671V130.741H670.35V127.671H670.34ZM671.23 83.3806V80.3105H688.57V83.3806L680.26 84.5106L678.71 84.8706L671.23 83.3806Z" fill="#136497"/>
<path d="M697.488 127.67L705.038 126.54H706.538L714.758 127.67V130.74H697.488V127.67ZM719.888 79.9397H724.598L741.908 130.74H734.568L719.548 85.8597L721.338 85.6397L706.018 130.73H702.428L719.888 79.9297V79.9397ZM711.118 110.84H731.468L732.698 114.36H709.908L711.118 110.84ZM725.838 127.68L735.278 126.55H736.988L746.348 127.68V130.74H725.838V127.68Z" fill="#136497"/>
<path d="M755.979 83.3798V80.3098H766.619V84.5098H765.839L755.979 83.3798ZM767.398 126.54L777.258 127.67V130.74H755.979V127.67L765.839 126.54H767.398ZM763.059 103.67C763.059 95.9098 763.058 88.0698 762.828 80.3098H770.388C770.158 88.1398 770.159 95.5398 770.159 104.39V106.65C770.159 115.14 770.158 122.98 770.388 130.74H762.828C763.058 123.13 763.059 115.29 763.059 107.38V103.67ZM766.619 103.97H776.008C784.108 103.97 787.939 99.5998 787.939 93.5698C787.939 87.5398 784.559 83.8198 776.809 83.8198H766.609V80.2998H777.049C788.599 80.2998 795.369 85.1898 795.369 93.5198C795.369 99.8898 790.359 105.7 780.289 106.52L780.508 105.91C786.308 106.43 789.599 108.99 791.599 115.85L795.198 128.31L792.638 126.74L800.599 127.66V130.73C799.119 131.2 797.338 131.5 795.008 131.5C790.238 131.5 788.098 130.26 787.208 126.65L784.219 114.57C782.759 108.52 780.019 107.4 773.859 107.4H766.609V103.96L766.619 103.97Z" fill="#136497"/>
<path d="M808.58 83.3798V80.3098H829.88V83.3798L820 84.5098H818.46L808.58 83.3798ZM834.54 126.52C843.1 126.52 847.45 121.64 847.45 108.27V80.2998H851.28V110.12C851.28 125.95 843.61 131.88 833.3 131.88C822.36 131.88 814.93 125.81 814.93 111.76V103.62C814.93 95.8798 814.93 88.0498 814.7 80.2998H822.27C822.04 87.8998 822.04 95.7198 822.04 103.62V109.56C822.04 122.44 826.86 126.51 834.52 126.51L834.54 126.52ZM848.02 84.4798L839.75 83.3698V80.2998H857.83V83.3698L849.57 84.4798H848.02Z" fill="#136497"/>
<path d="M894.339 119C894.339 114.15 891.459 111.99 885.009 109.46L882.129 108.31C874.379 105.24 869.109 100.86 869.109 93.1402C869.109 84.4502 876.419 79.1602 886.099 79.1602C891.169 79.1602 895.229 80.7302 898.499 83.1402L898.039 92.9802H893.379L891.289 81.6002L896.179 84.0702V87.8401C892.469 84.2601 889.679 82.9702 885.689 82.9702C879.899 82.9702 875.509 85.9002 875.509 91.4602C875.509 96.1702 878.559 98.9102 883.999 101.02L886.969 102.18C896.899 106.05 900.749 110.41 900.749 117.53C900.749 126.42 893.329 131.9 882.859 131.9C877.209 131.9 871.659 130.12 868.139 127.91L868.589 117.32H873.259L875.219 128.96L870.269 126.87V123.25C874.949 126.59 877.539 128.09 882.649 128.09C889.709 128.09 894.349 124.79 894.349 119.01L894.339 119Z" fill="#136497"/>
<path d="M608.949 151.569V157.659C608.949 158.269 609.099 158.739 609.399 159.069C609.699 159.399 610.139 159.559 610.719 159.559C611.299 159.559 611.739 159.389 612.049 159.069C612.359 158.739 612.509 158.269 612.509 157.659V151.569H614.989V157.639C614.989 158.549 614.799 159.319 614.409 159.939C614.019 160.569 613.499 161.039 612.849 161.359C612.199 161.679 611.469 161.839 610.669 161.839C609.869 161.839 609.149 161.679 608.519 161.369C607.889 161.059 607.389 160.579 607.019 159.949C606.649 159.319 606.469 158.549 606.469 157.639V151.569H608.949Z" fill="#1A2B56"/>
<path d="M625.828 161.739H623.349L619.208 155.469V161.739H616.729V151.569H619.208L623.349 157.869V151.569H625.828V161.739Z" fill="#1A2B56"/>
<path d="M630.099 151.569V161.739H627.619V151.569H630.099Z" fill="#1A2B56"/>
<path d="M639.218 151.569V153.559H636.518V161.749H634.038V153.559H631.338V151.569H639.208H639.218Z" fill="#1A2B56"/>
<path d="M642.939 153.549V155.609H646.259V157.519H642.939V159.749H646.689V161.739H640.459V151.569H646.689V153.559H642.939V153.549Z" fill="#1A2B56"/>
<path d="M654.929 152.199C655.729 152.619 656.349 153.219 656.789 153.989C657.229 154.759 657.449 155.639 657.449 156.649C657.449 157.659 657.229 158.529 656.789 159.299C656.349 160.069 655.729 160.669 654.919 161.099C654.109 161.529 653.179 161.739 652.119 161.739H648.309V151.569H652.119C653.189 151.569 654.129 151.779 654.929 152.209V152.199ZM654.139 158.829C654.659 158.319 654.919 157.589 654.919 156.659C654.919 155.729 654.659 154.989 654.139 154.469C653.619 153.949 652.889 153.689 651.949 153.689H650.779V159.599H651.949C652.889 159.599 653.619 159.339 654.139 158.829Z" fill="#1A2B56"/>
<path d="M673.428 151.569V161.739H670.948V155.639L668.668 161.739H666.668L664.378 155.629V161.739H661.898V151.569H664.828L667.678 158.609L670.508 151.569H673.418H673.428Z" fill="#1A2B56"/>
<path d="M681.539 159.939H677.739L677.129 161.739H674.539L678.219 151.569H681.089L684.769 161.739H682.149L681.539 159.939ZM680.909 158.029L679.649 154.309L678.399 158.029H680.909Z" fill="#1A2B56"/>
<path d="M691.079 161.739L688.959 157.899H688.369V161.739H685.889V151.569H690.049C690.849 151.569 691.539 151.709 692.099 151.989C692.659 152.269 693.089 152.649 693.369 153.139C693.649 153.629 693.789 154.169 693.789 154.769C693.789 155.449 693.599 156.049 693.219 156.579C692.839 157.109 692.279 157.489 691.529 157.709L693.879 161.739H691.079ZM688.369 156.149H689.909C690.359 156.149 690.699 156.039 690.929 155.819C691.159 155.599 691.269 155.279 691.269 154.879C691.269 154.479 691.159 154.189 690.929 153.969C690.699 153.749 690.359 153.639 689.909 153.639H688.369V156.159V156.149Z" fill="#1A2B56"/>
<path d="M697.818 151.569V161.739H695.338V151.569H697.818Z" fill="#1A2B56"/>
<path d="M708.709 161.739H706.229L702.089 155.469V161.739H699.609V151.569H702.089L706.229 157.869V151.569H708.709V161.739Z" fill="#1A2B56"/>
<path d="M712.988 153.549V155.609H716.308V157.519H712.988V159.749H716.738V161.739H710.508V151.569H716.738V153.559H712.988V153.549Z" fill="#1A2B56"/>
<path d="M723.099 161.479C722.509 161.239 722.039 160.879 721.689 160.409C721.339 159.939 721.149 159.369 721.129 158.699H723.769C723.809 159.079 723.939 159.359 724.159 159.559C724.379 159.759 724.669 159.859 725.029 159.859C725.389 159.859 725.689 159.779 725.899 159.609C726.109 159.439 726.219 159.209 726.219 158.909C726.219 158.659 726.139 158.449 725.969 158.289C725.799 158.129 725.589 157.989 725.349 157.879C725.099 157.769 724.749 157.649 724.299 157.519C723.639 157.319 723.109 157.109 722.689 156.909C722.269 156.709 721.919 156.409 721.619 156.009C721.319 155.609 721.169 155.099 721.169 154.459C721.169 153.509 721.509 152.769 722.199 152.239C722.889 151.699 723.779 151.439 724.879 151.439C725.979 151.439 726.899 151.709 727.589 152.239C728.279 152.779 728.639 153.519 728.689 154.479H726.009C725.989 154.149 725.869 153.889 725.649 153.699C725.429 153.509 725.139 153.419 724.789 153.419C724.489 153.419 724.249 153.499 724.069 153.659C723.889 153.819 723.789 154.049 723.789 154.349C723.789 154.679 723.949 154.929 724.249 155.119C724.559 155.299 725.039 155.499 725.699 155.709C726.359 155.929 726.889 156.139 727.299 156.349C727.709 156.549 728.059 156.849 728.359 157.229C728.659 157.619 728.809 158.109 728.809 158.719C728.809 159.329 728.659 159.829 728.369 160.299C728.079 160.769 727.649 161.149 727.089 161.429C726.529 161.709 725.869 161.849 725.109 161.849C724.349 161.849 723.699 161.729 723.109 161.489L723.099 161.479Z" fill="#1A2B56"/>
<path d="M732.808 153.549V155.609H736.128V157.519H732.808V159.749H736.558V161.739H730.328V151.569H736.558V153.559H732.808V153.549Z" fill="#1A2B56"/>
<path d="M743.358 161.739L741.238 157.899H740.648V161.739H738.168V151.569H742.328C743.128 151.569 743.818 151.709 744.378 151.989C744.938 152.269 745.368 152.649 745.648 153.139C745.928 153.629 746.068 154.169 746.068 154.769C746.068 155.449 745.878 156.049 745.498 156.579C745.118 157.109 744.558 157.489 743.808 157.709L746.158 161.739H743.358ZM740.648 156.149H742.188C742.638 156.149 742.978 156.039 743.208 155.819C743.438 155.599 743.548 155.279 743.548 154.879C743.548 154.479 743.438 154.189 743.208 153.969C742.978 153.749 742.638 153.639 742.188 153.639H740.648V156.159V156.149Z" fill="#1A2B56"/>
<path d="M757.17 151.569L753.56 161.739H750.46L746.85 151.569H749.49L752.01 159.249L754.55 151.569H757.17Z" fill="#1A2B56"/>
<path d="M760.669 151.569V161.739H758.189V151.569H760.669Z" fill="#1A2B56"/>
<path d="M762.699 153.949C763.129 153.159 763.739 152.549 764.519 152.109C765.299 151.669 766.179 151.449 767.159 151.449C768.369 151.449 769.399 151.769 770.259 152.409C771.119 153.049 771.689 153.919 771.979 155.019H769.259C769.059 154.599 768.769 154.269 768.399 154.049C768.029 153.829 767.609 153.719 767.129 153.719C766.369 153.719 765.749 153.989 765.269 154.519C764.799 155.049 764.559 155.759 764.559 156.649C764.559 157.539 764.799 158.249 765.269 158.779C765.739 159.309 766.359 159.579 767.129 159.579C767.599 159.579 768.029 159.469 768.399 159.249C768.769 159.029 769.059 158.699 769.259 158.279H771.979C771.689 159.379 771.119 160.249 770.259 160.879C769.399 161.509 768.369 161.829 767.159 161.829C766.169 161.829 765.289 161.609 764.519 161.169C763.739 160.729 763.139 160.119 762.699 159.339C762.259 158.559 762.049 157.659 762.049 156.659C762.049 155.659 762.269 154.759 762.699 153.969V153.949Z" fill="#1A2B56"/>
<path d="M775.988 153.549V155.609H779.308V157.519H775.988V159.749H779.738V161.739H773.508V151.569H779.738V153.559H775.988V153.549Z" fill="#1A2B56"/>
<path d="M783.029 161.479C782.439 161.239 781.969 160.879 781.619 160.409C781.269 159.939 781.079 159.369 781.059 158.699H783.699C783.739 159.079 783.869 159.359 784.089 159.559C784.309 159.759 784.599 159.859 784.959 159.859C785.319 159.859 785.619 159.779 785.829 159.609C786.039 159.439 786.149 159.209 786.149 158.909C786.149 158.659 786.069 158.449 785.899 158.289C785.729 158.129 785.519 157.989 785.279 157.879C785.029 157.769 784.679 157.649 784.229 157.519C783.569 157.319 783.039 157.109 782.619 156.909C782.199 156.709 781.849 156.409 781.549 156.009C781.249 155.609 781.099 155.099 781.099 154.459C781.099 153.509 781.439 152.769 782.129 152.239C782.819 151.699 783.709 151.439 784.809 151.439C785.909 151.439 786.829 151.709 787.519 152.239C788.209 152.779 788.569 153.519 788.619 154.479H785.939C785.919 154.149 785.799 153.889 785.579 153.699C785.359 153.509 785.069 153.419 784.719 153.419C784.419 153.419 784.179 153.499 783.999 153.659C783.819 153.819 783.719 154.049 783.719 154.349C783.719 154.679 783.879 154.929 784.179 155.119C784.489 155.299 784.969 155.499 785.629 155.709C786.289 155.929 786.819 156.139 787.229 156.349C787.639 156.549 787.989 156.849 788.289 157.229C788.589 157.619 788.739 158.109 788.739 158.719C788.739 159.329 788.589 159.829 788.299 160.299C788.009 160.769 787.579 161.149 787.019 161.429C786.459 161.709 785.799 161.849 785.039 161.849C784.279 161.849 783.629 161.729 783.039 161.489L783.029 161.479Z" fill="#1A2B56"/>
<path d="M799.228 161.739L795.808 157.249V161.739H793.328V151.569H795.808V156.029L799.198 151.569H802.108L798.168 156.549L802.258 161.739H799.228Z" fill="#1A2B56"/>
<path d="M803.529 161.47C803.249 161.21 803.119 160.9 803.119 160.52C803.119 160.14 803.259 159.81 803.529 159.55C803.809 159.29 804.159 159.16 804.599 159.16C805.039 159.16 805.379 159.29 805.649 159.55C805.929 159.81 806.059 160.13 806.059 160.52C806.059 160.91 805.919 161.21 805.649 161.47C805.379 161.73 805.019 161.85 804.599 161.85C804.179 161.85 803.809 161.72 803.529 161.47Z" fill="#1A2B56"/>
<path d="M809.198 161.479C808.608 161.239 808.139 160.879 807.789 160.409C807.439 159.939 807.249 159.369 807.229 158.699H809.869C809.909 159.079 810.038 159.359 810.258 159.559C810.478 159.759 810.769 159.859 811.129 159.859C811.489 159.859 811.789 159.779 811.999 159.609C812.209 159.439 812.319 159.209 812.319 158.909C812.319 158.659 812.239 158.449 812.069 158.289C811.899 158.129 811.688 157.989 811.448 157.879C811.198 157.769 810.848 157.649 810.398 157.519C809.738 157.319 809.209 157.109 808.789 156.909C808.369 156.709 808.019 156.409 807.719 156.009C807.419 155.609 807.268 155.099 807.268 154.459C807.268 153.509 807.609 152.769 808.299 152.239C808.989 151.699 809.879 151.439 810.979 151.439C812.079 151.439 812.999 151.709 813.689 152.239C814.379 152.779 814.739 153.519 814.789 154.479H812.109C812.089 154.149 811.969 153.889 811.749 153.699C811.529 153.509 811.238 153.419 810.888 153.419C810.588 153.419 810.349 153.499 810.169 153.659C809.989 153.819 809.888 154.049 809.888 154.349C809.888 154.679 810.049 154.929 810.349 155.119C810.659 155.299 811.139 155.499 811.799 155.709C812.459 155.929 812.988 156.139 813.398 156.349C813.808 156.549 814.158 156.849 814.458 157.229C814.758 157.619 814.909 158.109 814.909 158.719C814.909 159.329 814.759 159.829 814.469 160.299C814.179 160.769 813.749 161.149 813.189 161.429C812.629 161.709 811.968 161.849 811.208 161.849C810.448 161.849 809.798 161.729 809.208 161.489L809.198 161.479Z" fill="#1A2B56"/>
<path d="M816.519 161.47C816.239 161.21 816.109 160.9 816.109 160.52C816.109 160.14 816.249 159.81 816.519 159.55C816.799 159.29 817.149 159.16 817.589 159.16C818.029 159.16 818.369 159.29 818.639 159.55C818.919 159.81 819.049 160.13 819.049 160.52C819.049 160.91 818.909 161.21 818.639 161.47C818.369 161.73 818.009 161.85 817.589 161.85C817.169 161.85 816.799 161.72 816.519 161.47Z" fill="#1A2B56"/>
<path d="M820.75 153.949C821.18 153.159 821.79 152.549 822.57 152.109C823.35 151.669 824.23 151.449 825.21 151.449C826.42 151.449 827.45 151.769 828.31 152.409C829.17 153.049 829.74 153.919 830.03 155.019H827.31C827.11 154.599 826.82 154.269 826.45 154.049C826.08 153.829 825.66 153.719 825.18 153.719C824.42 153.719 823.8 153.989 823.32 154.519C822.85 155.049 822.61 155.759 822.61 156.649C822.61 157.539 822.85 158.249 823.32 158.779C823.79 159.309 824.41 159.579 825.18 159.579C825.65 159.579 826.08 159.469 826.45 159.249C826.82 159.029 827.11 158.699 827.31 158.279H830.03C829.74 159.379 829.17 160.249 828.31 160.879C827.45 161.509 826.42 161.829 825.21 161.829C824.22 161.829 823.34 161.609 822.57 161.169C821.79 160.729 821.19 160.119 820.75 159.339C820.31 158.559 820.1 157.659 820.1 156.659C820.1 155.659 820.32 154.759 820.75 153.969V153.949Z" fill="#1A2B56"/>
<path d="M835.768 161.29C835.248 159.87 834.988 158.34 834.988 156.7C834.988 155.06 835.258 153.49 835.798 152.04C836.338 150.6 837.108 149.42 838.098 148.51H840.528V148.74C839.518 149.74 838.728 150.95 838.178 152.36C837.628 153.77 837.348 155.21 837.348 156.7C837.348 158.19 837.618 159.6 838.148 160.97C838.678 162.34 839.428 163.53 840.398 164.53V164.76H837.948C837.008 163.86 836.278 162.7 835.758 161.28L835.768 161.29Z" fill="#1A2B56"/>
<path d="M841.769 153.949C842.199 153.159 842.809 152.549 843.589 152.109C844.369 151.669 845.249 151.449 846.229 151.449C847.439 151.449 848.469 151.769 849.329 152.409C850.189 153.049 850.759 153.919 851.049 155.019H848.329C848.129 154.599 847.839 154.269 847.469 154.049C847.099 153.829 846.679 153.719 846.199 153.719C845.439 153.719 844.819 153.989 844.339 154.519C843.869 155.049 843.629 155.759 843.629 156.649C843.629 157.539 843.869 158.249 844.339 158.779C844.809 159.309 845.429 159.579 846.199 159.579C846.669 159.579 847.099 159.469 847.469 159.249C847.839 159.029 848.129 158.699 848.329 158.279H851.049C850.759 159.379 850.189 160.249 849.329 160.879C848.469 161.509 847.439 161.829 846.229 161.829C845.239 161.829 844.359 161.609 843.589 161.169C842.809 160.729 842.209 160.119 841.769 159.339C841.329 158.559 841.119 157.659 841.119 156.659C841.119 155.659 841.339 154.759 841.769 153.969V153.949Z" fill="#1A2B56"/>
<path d="M855.058 159.829H858.308V161.739H852.588V151.569H855.068V159.829H855.058Z" fill="#1A2B56"/>
<path d="M861.668 161.17C860.868 160.73 860.238 160.11 859.768 159.31C859.298 158.51 859.068 157.62 859.068 156.62C859.068 155.62 859.298 154.73 859.768 153.94C860.238 153.15 860.868 152.53 861.668 152.09C862.468 151.65 863.338 151.42 864.298 151.42C865.258 151.42 866.128 151.64 866.928 152.09C867.728 152.54 868.348 153.15 868.808 153.94C869.268 154.73 869.498 155.63 869.498 156.62C869.498 157.61 869.268 158.51 868.798 159.31C868.338 160.11 867.708 160.73 866.918 161.17C866.128 161.61 865.248 161.84 864.298 161.84C863.348 161.84 862.468 161.62 861.668 161.17ZM866.248 158.77C866.738 158.23 866.978 157.52 866.978 156.63C866.978 155.74 866.738 155.01 866.248 154.48C865.758 153.94 865.108 153.68 864.298 153.68C863.488 153.68 862.818 153.95 862.338 154.48C861.848 155.01 861.608 155.73 861.608 156.64C861.608 157.55 861.848 158.26 862.338 158.79C862.828 159.33 863.478 159.59 864.298 159.59C865.118 159.59 865.758 159.32 866.248 158.78V158.77Z" fill="#1A2B56"/>
<path d="M872.558 161.479C871.968 161.239 871.498 160.879 871.148 160.409C870.798 159.939 870.608 159.369 870.588 158.699H873.228C873.268 159.079 873.398 159.359 873.618 159.559C873.838 159.759 874.128 159.859 874.488 159.859C874.848 159.859 875.148 159.779 875.358 159.609C875.568 159.439 875.678 159.209 875.678 158.909C875.678 158.659 875.598 158.449 875.428 158.289C875.258 158.129 875.048 157.989 874.808 157.879C874.558 157.769 874.208 157.649 873.758 157.519C873.098 157.319 872.568 157.109 872.148 156.909C871.728 156.709 871.378 156.409 871.078 156.009C870.778 155.609 870.628 155.099 870.628 154.459C870.628 153.509 870.968 152.769 871.658 152.239C872.348 151.699 873.238 151.439 874.338 151.439C875.438 151.439 876.358 151.709 877.048 152.239C877.738 152.779 878.098 153.519 878.148 154.479H875.468C875.448 154.149 875.328 153.889 875.108 153.699C874.888 153.509 874.598 153.419 874.248 153.419C873.948 153.419 873.708 153.499 873.528 153.659C873.348 153.819 873.248 154.049 873.248 154.349C873.248 154.679 873.408 154.929 873.708 155.119C874.018 155.299 874.498 155.499 875.158 155.709C875.818 155.929 876.348 156.139 876.758 156.349C877.168 156.549 877.518 156.849 877.818 157.229C878.118 157.619 878.268 158.109 878.268 158.719C878.268 159.329 878.118 159.829 877.828 160.299C877.538 160.769 877.108 161.149 876.548 161.429C875.988 161.709 875.328 161.849 874.568 161.849C873.808 161.849 873.158 161.729 872.568 161.489L872.558 161.479Z" fill="#1A2B56"/>
<path d="M882.269 153.549V155.609H885.589V157.519H882.269V159.749H886.019V161.739H879.789V151.569H886.019V153.559H882.269V153.549Z" fill="#1A2B56"/>
<path d="M894.259 152.199C895.059 152.619 895.679 153.219 896.119 153.989C896.559 154.759 896.779 155.639 896.779 156.649C896.779 157.659 896.559 158.529 896.119 159.299C895.679 160.069 895.059 160.669 894.249 161.099C893.439 161.529 892.509 161.739 891.449 161.739H887.639V151.569H891.449C892.519 151.569 893.459 151.779 894.259 152.209V152.199ZM893.469 158.829C893.989 158.319 894.249 157.589 894.249 156.659C894.249 155.729 893.989 154.989 893.469 154.469C892.949 153.949 892.219 153.689 891.279 153.689H890.109V159.599H891.279C892.219 159.599 892.949 159.339 893.469 158.829Z" fill="#1A2B56"/>
<path d="M897.499 164.77V164.54C898.469 163.54 899.209 162.35 899.749 160.98C900.279 159.61 900.549 158.18 900.549 156.71C900.549 155.24 900.269 153.78 899.719 152.37C899.169 150.96 898.389 149.76 897.369 148.75V148.52H899.799C900.789 149.43 901.559 150.6 902.099 152.05C902.639 153.49 902.909 155.05 902.909 156.71C902.909 158.37 902.649 159.88 902.129 161.3C901.609 162.72 900.879 163.88 899.939 164.78H897.489L897.499 164.77Z" fill="#1A2B56"/>
<path d="M147.918 119.77H145.308C145.308 121.54 145.018 123.24 144.438 124.87C143.858 126.5 143.018 128.01 141.928 129.41C140.838 130.8 139.498 132.05 137.908 133.14C136.318 134.23 134.528 135.11 132.538 135.77C130.718 136.35 128.908 136.8 127.128 137.12C125.348 137.44 123.568 137.6 121.798 137.6C116.848 137.6 113.198 136.51 110.848 134.33C108.498 132.15 107.328 128.87 107.328 124.51C107.328 122.02 107.768 119.5 108.658 116.93C109.538 114.36 110.788 111.97 112.388 109.76C113.438 108.32 114.138 107.66 114.498 107.77C114.608 107.8 114.668 107.88 114.668 108.02C114.668 108.21 113.938 109.86 112.468 112.95C111.008 116.1 110.268 118.81 110.268 121.07C110.268 122.48 110.498 123.78 110.968 124.97C111.438 126.16 112.168 127.18 113.168 128.04C114.168 128.9 115.428 129.56 116.958 130.03C118.488 130.5 120.328 130.73 122.448 130.73C124.218 130.73 126.058 130.55 127.988 130.19C129.908 129.83 131.988 129.29 134.228 128.57C134.808 128.35 135.488 128.04 136.258 127.66C137.028 127.27 137.768 126.89 138.458 126.5C139.148 126.11 139.748 125.75 140.238 125.4C140.738 125.05 140.998 124.81 141.028 124.68C141.078 124.38 141.128 124.06 141.148 123.75C141.178 123.43 141.188 123.09 141.188 122.73C141.188 121.4 140.998 119.98 140.608 118.46C140.218 116.94 139.628 115.33 138.828 113.61C138.278 112.45 137.778 111.52 137.338 110.81C136.898 110.1 136.518 109.62 136.218 109.34L140.908 102.79C141.048 103.04 141.388 103.68 141.948 104.72C142.498 105.76 143.188 107.2 144.018 109.05C144.238 109.49 144.418 110.01 144.558 110.6C144.698 111.19 144.838 111.85 144.968 112.57H151.018C151.568 112.57 152.108 112.56 152.638 112.53C153.158 112.5 153.688 112.46 154.218 112.41C154.438 111.91 154.578 111.13 154.628 110.05C154.658 109.44 154.528 108.38 154.258 106.86C154.588 106.36 154.988 105.84 155.458 105.28C155.928 104.73 156.418 104.18 156.928 103.64C157.438 103.1 157.938 102.58 158.418 102.09C158.898 101.59 159.328 101.18 159.688 100.85C159.718 101.57 159.748 102.14 159.768 102.57C159.798 103 159.818 103.28 159.848 103.42C159.848 104.8 159.708 106.19 159.438 107.58C159.158 108.98 158.738 110.39 158.158 111.83C158.098 111.97 158.268 112.12 158.658 112.29C159.048 112.46 159.558 112.62 160.188 112.77C160.818 112.92 161.528 113.05 162.318 113.16C163.108 113.27 163.868 113.33 164.608 113.33C166.478 113.33 168.158 113.1 169.648 112.62C169.838 112.54 169.968 112.36 170.018 112.08C170.048 111.97 170.048 111.86 170.038 111.75C170.028 111.64 170.008 111.52 169.978 111.38C169.948 111.02 169.858 110.54 169.708 109.93C169.558 109.32 169.378 108.73 169.168 108.15C168.958 107.57 168.758 107.05 168.548 106.58C168.338 106.11 168.168 105.81 168.028 105.67L173.568 99.9902C173.788 100.65 173.988 101.39 174.178 102.21C174.358 103.03 174.508 103.88 174.638 104.78C174.768 105.68 174.858 106.6 174.908 107.56C174.958 108.52 174.988 109.44 174.988 110.36C174.988 111.49 174.968 112.49 174.928 113.36C174.888 114.23 174.808 115 174.698 115.66C174.588 116.32 174.458 116.9 174.308 117.4C174.158 117.9 173.968 118.34 173.748 118.73C172.918 119.28 172.018 119.64 171.048 119.81C170.078 119.98 168.918 120.06 167.568 120.06C165.968 120.06 164.228 119.93 162.348 119.67C160.468 119.41 158.538 118.92 156.548 118.2C156.188 118.09 155.868 117.98 155.598 117.87C155.318 117.76 155.068 117.66 154.848 117.58C152.858 118.96 150.548 119.71 147.928 119.82L147.918 119.77Z" fill="#136497"/>
<path d="M184.729 131.95C186.549 131.87 188.359 131.49 190.139 130.83C191.919 130.17 193.569 129.281 195.089 128.181C196.609 127.071 197.939 125.801 199.089 124.371C200.239 122.931 201.099 121.411 201.679 119.811C201.379 119.841 201.069 119.85 200.769 119.85H199.819C198.549 119.79 197.329 119.621 196.149 119.311C194.979 119.011 193.929 118.571 192.999 118.011C192.069 117.441 191.329 116.77 190.759 115.98C190.189 115.19 189.879 114.301 189.829 113.311C189.769 111.291 189.949 109.311 190.349 107.361C190.749 105.411 191.319 103.67 192.069 102.14C192.819 100.61 193.689 99.3705 194.679 98.4305C195.669 97.4905 196.739 97.0205 197.869 97.0205C199.419 97.0205 200.729 98.0405 201.809 100.09C203.249 102.27 204.319 104.491 205.039 106.741C205.759 108.991 206.119 111.24 206.119 113.47C206.119 116.81 205.539 120.04 204.379 123.14C203.219 126.24 201.419 129.141 198.989 131.821C195.199 136.021 191.279 138.241 187.219 138.491C182.769 138.661 178.169 136 173.419 130.53C171.629 128.43 170.729 126.91 170.729 125.97C170.729 125.83 170.769 125.72 170.849 125.64C171.489 126.19 172.179 126.76 172.919 127.34C173.669 127.92 174.459 128.46 175.299 128.98C176.139 129.49 177.029 129.96 177.949 130.39C178.869 130.82 179.839 131.141 180.829 131.361C182.049 131.801 183.339 132.001 184.729 131.941V131.95ZM202.169 112.311V112.23C202.169 111.59 201.999 110.871 201.649 110.051C201.299 109.241 200.859 108.471 200.319 107.751C199.779 107.031 199.169 106.421 198.499 105.931C197.819 105.431 197.169 105.16 196.529 105.1C196.139 105.1 195.729 105.29 195.289 105.66C194.849 106.03 194.439 106.47 194.069 106.97C193.699 107.47 193.409 107.961 193.199 108.441C192.989 108.921 192.939 109.26 193.049 109.46C194.099 111.61 196.209 112.76 199.389 112.9C200.049 112.93 200.559 112.931 200.919 112.921C201.279 112.911 201.549 112.88 201.729 112.84C201.909 112.8 202.029 112.74 202.079 112.65C202.139 112.57 202.159 112.461 202.159 112.321L202.169 112.311Z" fill="#136497"/>
<path d="M225.417 109.33L228.687 102.29C230.067 103.56 231.247 104.8 232.227 106C233.207 107.2 234.017 108.42 234.647 109.65C235.277 110.88 235.747 112.14 236.037 113.42C236.327 114.7 236.477 116.07 236.477 117.5C236.477 118.83 236.307 120.23 235.957 121.71C235.607 123.19 235.097 124.66 234.427 126.12C233.747 127.58 232.917 129.01 231.917 130.39C230.927 131.77 229.787 133.03 228.517 134.16C227.247 135.29 225.837 136.25 224.287 137.04C222.737 137.83 221.077 138.37 219.317 138.68C218.907 138.76 218.487 138.83 218.077 138.89C217.667 138.94 217.217 138.99 216.747 139.01C215.777 138.98 214.797 138.79 213.787 138.43C212.777 138.07 211.767 137.57 210.767 136.94C209.757 136.3 208.777 135.54 207.827 134.66C206.877 133.78 205.987 132.81 205.157 131.76C203.857 130.07 203.347 129.08 203.627 128.78C203.567 128.83 204.677 129.37 206.937 130.4C209.667 131.64 212.337 132.26 214.937 132.26C221.567 132.26 227.317 128.41 232.177 120.7C232.457 120.31 232.587 119.82 232.587 119.21C232.587 118.55 232.377 117.77 231.947 116.89C231.517 116.01 230.957 115.11 230.267 114.2C229.577 113.29 228.807 112.4 227.967 111.55C227.127 110.69 226.277 109.96 225.417 109.35V109.33Z" fill="#136497"/>
<path d="M259.849 112.6L259.889 119.691H256.159C254.249 119.691 252.709 119.49 251.519 119.09C250.329 118.69 249.389 117.99 248.679 116.98C247.979 115.97 247.459 114.601 247.129 112.861C246.799 111.121 246.539 108.901 246.339 106.191L244.139 77.8505C247.729 73.5105 249.639 71.4105 249.859 71.5505C249.969 71.8005 250.149 75.1005 250.399 81.4505L251.559 106.85C251.619 108.09 251.739 109.09 251.929 109.85C252.119 110.61 252.429 111.19 252.839 111.59C253.249 111.99 253.819 112.26 254.539 112.4C255.259 112.54 256.179 112.611 257.319 112.611H259.849V112.6Z" fill="#136497"/>
<path d="M257.988 119.691V112.601H273.938V119.691H257.988Z" fill="#136497"/>
<path d="M272.068 119.691V112.601H288.018V119.691H272.068Z" fill="#136497"/>
<path d="M286.158 119.691V112.601H302.108V119.691H286.158Z" fill="#136497"/>
<path d="M300.329 119.69V112.6H301.989C301.739 112.63 301.829 112.66 302.259 112.7C302.689 112.74 303.319 112.79 304.149 112.84C304.979 112.9 305.949 112.96 307.069 113.03C308.189 113.1 309.319 113.16 310.469 113.22C311.619 113.28 312.719 113.32 313.779 113.34C314.839 113.37 315.729 113.38 316.449 113.38C317.419 113.38 318.379 113.37 319.329 113.34C320.279 113.31 321.189 113.27 322.059 113.22C322.929 113.17 323.739 113.09 324.479 112.99C325.229 112.89 325.859 112.76 326.389 112.6C326.469 112.49 326.229 112.15 325.659 111.59C325.089 111.02 324.299 110.28 323.279 109.35C322.259 108.42 321.029 107.33 319.589 106.06C318.149 104.79 316.609 103.41 314.949 101.92C311.139 98.6901 309.089 97.1301 308.819 97.2401L308.199 97.9901L307.409 98.9801L302.309 93.8801C301.759 93.3301 301.479 92.5801 301.479 91.6401C301.479 90.0701 302.199 88.3101 303.629 86.3801C303.739 86.1301 303.959 85.9001 304.289 85.6801C307.549 83.4701 316.999 79.2701 332.629 73.0801L330.139 80.3301C325.999 81.8201 322.079 83.2701 318.389 84.6601C314.699 86.0601 311.199 87.4201 307.889 88.7401C307.499 88.8801 307.339 89.0401 307.389 89.2401C307.389 89.3001 307.749 89.6001 308.469 90.1501C309.189 90.7001 310.159 91.4501 311.389 92.3901C312.619 93.3301 314.029 94.4501 315.639 95.7501C317.239 97.0501 318.909 98.4801 320.649 100.06C322.559 101.77 324.469 103.58 326.389 105.49C328.309 107.4 330.259 109.43 332.249 111.58C332.329 111.66 332.389 111.79 332.419 111.95C332.449 112.12 332.479 112.34 332.499 112.61H335.149V119.7H330.919L329.929 119C329.019 119.19 327.479 119.41 325.309 119.64C323.139 119.87 320.499 120.1 317.369 120.32C316.899 120.35 316.429 120.36 315.959 120.36H314.549C313.749 120.36 312.749 120.33 311.569 120.28C310.379 120.22 309.199 120.16 308.029 120.07C306.859 119.99 305.779 119.91 304.799 119.84C303.819 119.77 303.119 119.74 302.709 119.74C302.519 119.71 302.379 119.7 302.299 119.7H300.309L300.329 119.69Z" fill="#136497"/>
<path d="M333.309 119.691V112.601H335.169C335.279 112.601 335.689 112.631 336.389 112.681C337.089 112.741 337.899 112.791 338.789 112.851C339.689 112.911 340.569 112.961 341.439 113.021C342.309 113.081 342.979 113.101 343.449 113.101C348.509 113.101 351.069 112.851 351.159 112.351C351.159 111.661 350.979 110.851 350.619 109.911C350.119 108.251 348.889 106.261 346.929 103.941C347.119 103.471 347.379 102.901 347.699 102.241C348.019 101.581 348.359 100.901 348.719 100.211C349.079 99.5206 349.429 98.8606 349.779 98.2206C350.119 97.5906 350.409 97.0305 350.629 96.5605C350.709 96.5605 350.889 96.7506 351.169 97.1206C351.449 97.4906 351.779 98.0106 352.159 98.6706C352.549 99.3306 352.959 100.141 353.399 101.091C353.839 102.041 354.279 103.111 354.729 104.301C355.999 107.921 356.639 111.071 356.639 113.751C356.639 115.741 356.279 117.261 355.559 118.311C355.479 118.451 355.129 118.611 354.519 118.791C353.909 118.971 353.169 119.141 352.279 119.311C351.399 119.481 350.439 119.621 349.399 119.751C348.359 119.871 347.379 119.961 346.439 120.021C345.909 120.051 345.369 120.061 344.799 120.061H342.999C342.249 120.061 341.479 120.041 340.679 120.001C339.879 119.961 339.119 119.921 338.399 119.881C337.679 119.841 337.039 119.801 336.469 119.761C335.899 119.721 335.469 119.701 335.159 119.701H333.299L333.309 119.691ZM334.559 136.261L337.869 131.161L344.419 135.471L347.109 131.451L353.949 135.881L350.679 140.851L344.129 136.541L341.439 140.641L334.559 136.251V136.261Z" fill="#136497"/>
<path d="M370.029 71.2502C370.109 72.3302 370.199 73.6302 370.299 75.1502C370.399 76.6702 370.509 78.4502 370.649 80.5002L371.519 96.4502C371.579 97.0002 371.609 97.5402 371.619 98.0702C371.629 98.5902 371.669 99.1202 371.719 99.6402L371.799 111.32C371.799 111.87 371.789 112.42 371.759 112.96C371.729 113.5 371.689 114.06 371.639 114.64C370.839 115.97 369.959 117.31 369.009 118.68C368.059 120.05 367.209 121.26 366.459 122.31V118.97C366.459 117.77 366.459 116.55 366.479 115.32C366.489 114.09 366.499 112.87 366.499 111.67V108.25C366.219 103.86 365.919 99.7402 365.589 95.8802C365.259 92.0202 364.999 88.6902 364.799 85.8702L364.299 78.2902C365.459 76.8002 366.509 75.4702 367.449 74.3102C368.389 73.1502 369.249 72.1302 370.019 71.2402L370.029 71.2502Z" fill="#136497"/>
<path d="M112.568 161.471V161.391H112.468C112.128 162.961 111.538 163.501 110.188 163.501C108.588 163.501 107.758 162.591 107.758 161.021C107.758 159.161 108.868 158.121 110.588 157.261L112.478 156.311V155.381H114.498V160.801C114.498 161.471 114.768 161.711 115.508 161.711H116.018V163.741L115.508 164.251C113.488 164.231 112.558 163.191 112.558 161.481L112.568 161.471ZM112.488 160.101V158.071L111.238 158.661C110.038 159.231 109.448 159.541 109.448 160.181C109.448 160.741 109.768 160.961 110.748 160.961C112.048 160.961 112.488 160.741 112.488 160.101ZM109.688 152.901C109.688 152.111 110.108 151.771 110.688 151.771H111.028C111.598 151.771 112.028 152.111 112.028 152.901C112.028 153.691 111.608 154.031 111.028 154.031H110.688C110.118 154.031 109.688 153.691 109.688 152.901ZM112.348 152.901C112.348 152.111 112.768 151.771 113.348 151.771H113.688C114.258 151.771 114.688 152.111 114.688 152.901C114.688 153.691 114.268 154.031 113.688 154.031H113.348C112.778 154.031 112.348 153.691 112.348 152.901Z" fill="#1A2B56"/>
<path d="M115.527 162.21L116.037 161.7H116.457C117.387 161.7 117.807 161.33 117.807 160.52V151.74H119.837V160.52C119.837 161.33 120.207 161.7 121.017 161.7H121.607V163.73L121.097 164.24C119.257 164.24 118.347 163.53 118.027 161.96H117.927C117.637 163.53 116.927 164.24 115.527 164.24V162.21Z" fill="#1A2B56"/>
<path d="M121.098 162.211L121.608 161.701H123.418L123.448 161.621C122.608 160.761 122.318 159.761 122.318 158.871C122.318 156.841 123.648 155.211 125.638 155.211C127.628 155.211 128.958 156.851 128.958 158.871C128.958 159.761 128.668 160.761 127.828 161.621L127.858 161.701H129.728V163.731L129.218 164.241H129.048C127.848 164.241 126.668 163.971 125.638 163.161C124.608 163.971 123.428 164.241 122.228 164.241H121.078V162.211H121.098ZM127.368 159.261C127.368 158.331 126.638 157.741 125.728 157.741H125.528C124.618 157.741 123.888 158.331 123.888 159.261C123.888 160.191 124.498 160.851 125.628 161.491C126.758 160.851 127.368 160.161 127.368 159.261ZM124.468 152.731C124.468 151.941 124.888 151.601 125.468 151.601H125.808C126.378 151.601 126.808 151.941 126.808 152.731C126.808 153.521 126.388 153.861 125.808 153.861H125.468C124.898 153.861 124.468 153.521 124.468 152.731Z" fill="#1A2B56"/>
<path d="M129.227 162.211L129.737 161.701H131.547L131.577 161.621C130.737 160.761 130.447 159.761 130.447 158.871C130.447 156.841 131.777 155.211 133.767 155.211C135.757 155.211 137.087 156.851 137.087 158.871C137.087 159.761 136.797 160.761 135.957 161.621L135.987 161.701H137.857V163.731L137.347 164.241H137.177C135.977 164.241 134.797 163.971 133.767 163.161C132.737 163.971 131.557 164.241 130.357 164.241H129.207V162.211H129.227ZM131.267 152.731C131.267 151.941 131.687 151.601 132.267 151.601H132.607C133.177 151.601 133.607 151.941 133.607 152.731C133.607 153.521 133.187 153.861 132.607 153.861H132.267C131.697 153.861 131.267 153.521 131.267 152.731ZM135.507 159.261C135.507 158.331 134.777 157.741 133.867 157.741H133.667C132.757 157.741 132.027 158.331 132.027 159.261C132.027 160.191 132.637 160.851 133.767 161.491C134.897 160.851 135.507 160.161 135.507 159.261ZM133.937 152.731C133.937 151.941 134.357 151.601 134.937 151.601H135.277C135.847 151.601 136.277 151.941 136.277 152.731C136.277 153.521 135.857 153.861 135.277 153.861H134.937C134.367 153.861 133.937 153.521 133.937 152.731Z" fill="#1A2B56"/>
<path d="M139.847 163.291C139.337 163.981 138.597 164.241 137.367 164.241V162.211L137.877 161.701C138.717 161.701 139.007 161.481 139.257 160.861L139.727 159.691C140.297 158.261 141.157 157.091 142.767 157.091C144.857 157.091 145.957 158.861 145.957 161.801V162.291L144.357 164.671L139.847 163.291ZM140.777 160.941L144.167 161.971V161.801C144.167 160.451 143.457 159.641 142.347 159.641C141.617 159.641 141.077 160.011 140.807 160.841L140.777 160.941Z" fill="#1A2B56"/>
<path d="M151.428 160.301V157.871H156.438V160.301H151.428Z" fill="#1A2B56"/>
<path d="M161.998 161.7H170.708C171.398 161.7 171.718 161.38 171.718 160.69V151.73H173.738V160.69C173.738 163.1 172.778 164.23 170.698 164.23H161.988V161.7H161.998ZM165.608 158.99L168.258 157.74L168.228 157.62H166.878C166.018 157.62 165.608 157.25 165.608 156.44C165.608 155.63 166.148 155.24 167.108 154.69L168.218 154.05L168.828 155.06L166.748 156.22L166.778 156.36H168.098C168.988 156.36 169.398 156.68 169.398 157.41C169.398 158.22 168.938 158.68 167.998 159.15L166.158 160.08L165.598 159L165.608 158.99Z" fill="#1A2B56"/>
<path d="M175.889 163.071V162.731C175.889 161.951 176.359 161.381 177.369 161.381C178.379 161.381 178.859 161.951 178.859 162.731V163.071C178.859 163.851 178.389 164.421 177.369 164.421C176.349 164.421 175.889 163.851 175.889 163.071Z" fill="#1A2B56"/>
<path d="M180.668 165.35C180.668 162.51 181.878 161.13 184.378 161.13H188.078C187.998 159.81 187.188 159.02 186.088 159.02C184.988 159.02 184.438 159.64 184.228 160.49L182.388 159.9C182.778 157.28 184.578 156.49 186.048 156.49C188.328 156.49 189.778 158.31 189.778 161.52V163.66H184.378C183.028 163.66 182.688 164 182.688 165.35V169.37H180.668V165.35Z" fill="#1A2B56"/>
<path d="M191.498 163.071V162.731C191.498 161.951 191.968 161.381 192.978 161.381C193.988 161.381 194.468 161.951 194.468 162.731V163.071C194.468 163.851 193.998 164.421 192.978 164.421C191.958 164.421 191.498 163.851 191.498 163.071Z" fill="#1A2B56"/>
<path d="M209.098 162.091H208.998C208.828 163.561 208.048 164.231 206.918 164.231H206.308C206.058 167.011 204.498 168.301 201.428 168.301C197.988 168.301 196.178 166.581 196.178 163.681C196.178 162.731 196.478 161.591 196.968 160.461L198.588 160.931C198.148 161.841 197.858 162.681 197.858 163.341C197.858 164.721 198.938 165.571 200.748 165.571H202.098C203.768 165.571 204.548 164.881 204.548 163.361C204.548 162.851 204.408 162.091 204.258 161.391L203.918 159.821L205.738 159.471L206.058 161.021L206.178 161.711H207.508C208.508 161.711 208.858 161.411 208.858 160.531V159.471H210.718V160.531C210.718 161.461 211.068 161.881 211.628 161.881H211.798C212.268 161.881 212.588 161.541 212.588 160.781C212.588 160.461 212.518 159.991 212.398 159.301L212.248 158.441L214.088 158.141L214.228 159.001C214.328 159.661 214.378 160.211 214.378 160.791C214.378 163.301 213.538 164.451 211.708 164.451C210.118 164.451 209.358 163.691 209.078 162.101L209.098 162.091ZM207.308 156.981C207.308 156.191 207.728 155.851 208.308 155.851H208.648C209.218 155.851 209.648 156.191 209.648 156.981C209.648 157.771 209.228 158.111 208.648 158.111H208.308C207.738 158.111 207.308 157.771 207.308 156.981ZM208.648 154.521C208.648 153.731 209.068 153.391 209.648 153.391H209.988C210.558 153.391 210.988 153.731 210.988 154.521C210.988 155.311 210.568 155.651 209.988 155.651H209.648C209.078 155.651 208.648 155.311 208.648 154.521ZM209.978 156.981C209.978 156.191 210.398 155.851 210.978 155.851H211.318C211.888 155.851 212.318 156.191 212.318 156.981C212.318 157.771 211.898 158.111 211.318 158.111H210.978C210.408 158.111 209.978 157.771 209.978 156.981Z" fill="#1A2B56"/>
<path d="M224.378 161.471V161.391H224.278C223.938 162.961 223.348 163.501 221.998 163.501C220.398 163.501 219.568 162.591 219.568 161.021C219.568 159.161 220.678 158.121 222.398 157.261L224.288 156.311V155.381H226.308V160.801C226.308 161.471 226.578 161.711 227.318 161.711H227.828V163.741L227.318 164.251C225.298 164.231 224.368 163.191 224.368 161.481L224.378 161.471ZM224.298 160.101V158.071L223.048 158.661C221.848 159.231 221.258 159.541 221.258 160.181C221.258 160.741 221.578 160.961 222.558 160.961C223.858 160.961 224.298 160.741 224.298 160.101ZM221.498 152.901C221.498 152.111 221.918 151.771 222.498 151.771H222.838C223.408 151.771 223.838 152.111 223.838 152.901C223.838 153.691 223.418 154.031 222.838 154.031H222.498C221.928 154.031 221.498 153.691 221.498 152.901ZM224.158 152.901C224.158 152.111 224.578 151.771 225.158 151.771H225.498C226.068 151.771 226.498 152.111 226.498 152.901C226.498 153.691 226.078 154.031 225.498 154.031H225.158C224.588 154.031 224.158 153.691 224.158 152.901Z" fill="#1A2B56"/>
<path d="M227.338 162.21L227.848 161.7H228.338C229.958 161.7 230.418 161.43 230.418 160.67C230.418 160.33 230.368 159.83 230.218 158.98L229.928 157.41L231.768 157.11L232.018 158.68C232.118 159.29 232.208 160.11 232.208 160.67C232.208 163.12 231.098 164.23 228.348 164.23H227.348V162.2L227.338 162.21ZM227.958 166.75C227.958 165.96 228.378 165.62 228.958 165.62H229.298C229.868 165.62 230.298 165.96 230.298 166.75C230.298 167.54 229.878 167.88 229.298 167.88H228.958C228.388 167.88 227.958 167.54 227.958 166.75ZM230.628 166.75C230.628 165.96 231.048 165.62 231.628 165.62H231.968C232.538 165.62 232.968 165.96 232.968 166.75C232.968 167.54 232.548 167.88 231.968 167.88H231.628C231.058 167.88 230.628 167.54 230.628 166.75Z" fill="#1A2B56"/>
<path d="M233.719 165.75H234.399C236.419 165.75 237.349 164.97 237.349 163.05C237.349 162.54 237.269 161.97 237.159 161.31L236.809 159.07L238.649 158.78L238.899 160.35C238.979 160.84 239.029 161.3 239.089 161.7H240.639V163.73L240.129 164.24H239.079C238.689 166.74 237.089 168.29 234.409 168.29H233.719V165.76V165.75Z" fill="#1A2B56"/>
<path d="M240.127 162.21L240.637 161.7H241.797C244.327 161.7 245.657 161.63 247.607 160.69L248.227 160.39V160.31L245.527 159.74L242.977 159.12V160.39H241.037V159.09C241.037 157.5 241.727 156.78 243.127 156.78C243.477 156.78 243.817 156.85 244.887 157.12L248.147 157.96C249.037 158.2 250.137 158.35 251.137 158.35H251.477V160.88H250.297C250.317 161.5 250.637 161.72 251.477 161.72H251.987V163.75L251.477 164.26C249.807 164.24 248.857 163.5 248.647 161.91L248.577 161.96C245.627 163.97 243.967 164.25 241.807 164.25H240.137V162.22L240.127 162.21Z" fill="#1A2B56"/>
<path d="M251.469 162.21L251.979 161.7H252.489C253.419 161.7 253.839 161.33 253.839 160.52V158.11H255.699V160.52C255.699 161.33 256.069 161.7 256.879 161.7H257.559V163.73L257.049 164.24C255.259 164.24 254.369 163.53 254.059 161.96H253.959C253.659 163.53 252.929 164.24 251.479 164.24V162.21H251.469ZM253.599 166.75C253.599 165.96 254.019 165.62 254.599 165.62H254.939C255.509 165.62 255.939 165.96 255.939 166.75C255.939 167.54 255.519 167.88 254.939 167.88H254.599C254.029 167.88 253.599 167.54 253.599 166.75Z" fill="#1A2B56"/>
<path d="M257.037 162.211L257.547 161.701H258.287C259.127 161.701 259.347 161.381 259.347 160.691V151.751H261.377V160.691C261.377 163.101 260.547 164.221 258.287 164.231H257.037V162.201V162.211Z" fill="#1A2B56"/>
<path d="M263.408 151.751H265.428V164.241H263.408V151.751Z" fill="#1A2B56"/>
<path d="M271.107 160.521C271.107 159.631 271.357 158.481 271.787 157.431L273.407 157.901C273.037 158.661 272.797 159.401 272.797 159.961C272.797 161.261 273.797 161.701 276.697 161.701H279.057C282.007 161.701 283.037 161.431 283.037 160.671C283.037 160.331 282.987 159.831 282.837 158.981L282.547 157.411L284.387 157.111L284.637 158.681C284.737 159.291 284.827 160.111 284.827 160.671C284.827 163.671 283.407 164.431 277.707 164.431C272.817 164.431 271.107 163.421 271.107 160.511V160.521ZM275.357 156.981C275.357 156.191 275.777 155.851 276.357 155.851H276.697C277.267 155.851 277.697 156.191 277.697 156.981C277.697 157.771 277.277 158.111 276.697 158.111H276.357C275.787 158.111 275.357 157.771 275.357 156.981ZM278.017 156.981C278.017 156.191 278.437 155.851 279.017 155.851H279.357C279.927 155.851 280.357 156.191 280.357 156.981C280.357 157.771 279.937 158.111 279.357 158.111H279.017C278.447 158.111 278.017 157.771 278.017 156.981Z" fill="#1A2B56"/>
<path d="M286.348 160.79V151.74H288.368V160.45C288.368 161.46 288.718 161.7 289.718 161.7H290.228V163.73L289.718 164.24H289.698C287.438 164.24 286.338 163.23 286.338 160.8L286.348 160.79Z" fill="#1A2B56"/>
<path d="M292.209 163.291C291.699 163.981 290.959 164.241 289.729 164.241V162.211L290.239 161.701C291.079 161.701 291.368 161.481 291.618 160.861L292.089 159.691C292.659 158.261 293.519 157.091 295.129 157.091C297.219 157.091 298.319 158.861 298.319 161.801V162.291L296.719 164.671L292.209 163.291ZM293.129 160.941L296.519 161.971V161.801C296.519 160.451 295.809 159.641 294.699 159.641C293.969 159.641 293.429 160.011 293.159 160.841L293.129 160.941Z" fill="#1A2B56"/>
<path d="M299.408 161.761V160.631H301.348V161.711H303.658C304.398 161.711 304.738 161.511 304.738 160.981C304.738 160.741 304.618 160.371 304.498 160.031L303.008 155.761L305.168 155.001L306.868 159.881C307.378 161.351 307.798 161.701 308.678 161.701H309.188V163.731L308.678 164.241C306.808 164.241 305.948 163.751 305.138 161.931L305.068 161.961C304.778 163.601 304.208 164.241 302.758 164.241H301.828C300.258 164.241 299.398 163.481 299.398 161.761H299.408Z" fill="#1A2B56"/>
<path d="M308.697 162.21L309.207 161.7H310.367C312.897 161.7 314.227 161.63 316.177 160.69L316.797 160.39V160.31L314.097 159.74L311.547 159.12V160.39H309.607V159.09C309.607 157.5 310.297 156.78 311.697 156.78C312.047 156.78 312.387 156.85 313.457 157.12L316.717 157.96C317.607 158.2 318.707 158.35 319.707 158.35H320.047V160.88H318.867C318.887 161.5 319.207 161.72 320.047 161.72H320.557V163.75L320.047 164.26C318.377 164.24 317.427 163.5 317.217 161.91L317.147 161.96C314.197 163.97 312.537 164.25 310.377 164.25H308.707V162.22L308.697 162.21ZM312.657 154.28C312.657 153.49 313.077 153.15 313.657 153.15H313.997C314.567 153.15 314.997 153.49 314.997 154.28C314.997 155.07 314.577 155.41 313.997 155.41H313.657C313.087 155.41 312.657 155.07 312.657 154.28Z" fill="#1A2B56"/>
<path d="M320.037 162.21L320.547 161.7H320.967C321.897 161.7 322.317 161.33 322.317 160.52V151.74H324.347V160.52C324.347 161.33 324.717 161.7 325.527 161.7H326.117V163.73L325.607 164.24C323.767 164.24 322.857 163.53 322.537 161.96H322.437C322.147 163.53 321.437 164.24 320.037 164.24V162.21Z" fill="#1A2B56"/>
<path d="M325.607 162.211L326.117 161.701H326.857C327.697 161.701 327.917 161.381 327.917 160.691V151.751H329.947V160.691C329.947 163.101 329.117 164.221 326.857 164.231H325.607V162.201V162.211Z" fill="#1A2B56"/>
<path d="M335.278 161.011C335.278 159.681 335.958 158.191 337.318 156.891L337.658 156.571H340.118L340.468 156.871C341.818 158.021 342.388 159.151 342.388 160.631C342.388 163.011 341.068 164.431 338.828 164.431C336.588 164.431 335.268 163.161 335.268 161.001L335.278 161.011ZM336.398 154.091C336.398 153.301 336.818 152.961 337.398 152.961H337.738C338.308 152.961 338.738 153.301 338.738 154.091C338.738 154.881 338.318 155.221 337.738 155.221H337.398C336.828 155.221 336.398 154.881 336.398 154.091ZM339.008 161.911C340.068 161.911 340.708 161.501 340.708 160.851C340.708 160.451 340.438 160.011 339.228 159.061L338.638 158.601H338.508L338.018 159.071C337.238 159.831 336.968 160.201 336.968 160.761C336.968 161.431 337.608 161.911 338.668 161.911H339.008ZM339.058 154.091C339.058 153.301 339.478 152.961 340.058 152.961H340.398C340.968 152.961 341.398 153.301 341.398 154.091C341.398 154.881 340.978 155.221 340.398 155.221H340.058C339.488 155.221 339.058 154.881 339.058 154.091Z" fill="#1A2B56"/>
<path d="M343.248 161.761V160.631H345.188V161.711H347.498C348.238 161.711 348.578 161.511 348.578 160.981C348.578 160.741 348.458 160.371 348.338 160.031L346.848 155.761L349.008 155.001L350.708 159.881C351.218 161.351 351.638 161.701 352.518 161.701H353.028V163.731L352.518 164.241C350.648 164.241 349.788 163.751 348.978 161.931L348.908 161.961C348.618 163.601 348.048 164.241 346.598 164.241H345.668C344.098 164.241 343.238 163.481 343.238 161.761H343.248Z" fill="#1A2B56"/>
<path d="M352.527 162.21L353.037 161.7H354.197C356.727 161.7 358.057 161.63 360.007 160.69L360.627 160.39V160.31L357.927 159.74L355.377 159.12V160.39H353.437V159.09C353.437 157.5 354.127 156.78 355.527 156.78C355.877 156.78 356.217 156.85 357.287 157.12L360.547 157.96C361.437 158.2 362.537 158.35 363.537 158.35H363.877V160.88H362.697C362.717 161.5 363.037 161.72 363.877 161.72H364.387V163.75L363.877 164.26C362.207 164.24 361.257 163.5 361.047 161.91L360.977 161.96C358.027 163.97 356.367 164.25 354.207 164.25H352.537V162.22L352.527 162.21Z" fill="#1A2B56"/>
<path d="M363.877 162.211L364.387 161.701H364.897C365.827 161.701 366.247 161.331 366.247 160.521V158.111H368.107V160.521C368.107 161.331 368.477 161.701 369.287 161.701H369.967V163.731L369.457 164.241C367.667 164.241 366.777 163.531 366.467 161.961H366.367C366.067 163.531 365.337 164.241 363.887 164.241V162.211H363.877ZM364.667 155.631C364.667 154.841 365.087 154.501 365.667 154.501H366.007C366.577 154.501 367.007 154.841 367.007 155.631C367.007 156.421 366.587 156.761 366.007 156.761H365.667C365.097 156.761 364.667 156.421 364.667 155.631ZM367.337 155.631C367.337 154.841 367.757 154.501 368.337 154.501H368.677C369.247 154.501 369.677 154.841 369.677 155.631C369.677 156.421 369.257 156.761 368.677 156.761H368.337C367.767 156.761 367.337 156.421 367.337 155.631Z" fill="#1A2B56"/>
<path d="M373.798 165.1C372.528 164.41 371.928 164.24 370.758 164.24H369.438V162.21L369.948 161.7H370.958V151.74H372.978V161.95C373.588 162.14 374.198 162.42 375.008 162.86L375.837 163.32L374.638 165.55L373.798 165.09V165.1Z" fill="#1A2B56"/>
<path d="M376.348 151.751H378.368V164.241H376.348V151.751Z" fill="#1A2B56"/>
</svg>
