<svg width="479" height="100" viewBox="0 0 479 100" fill="none" xmlns="http://www.w3.org/2000/svg">
<path d="M40.709 22.1023C52.649 30.4323 64.6889 38.9323 75.6189 48.7823C81.7689 54.3223 90.6689 62.3823 89.7989 71.5023C89.0789 79.0123 79.119 90.1123 73.629 95.1423C72.959 95.7623 68.389 99.7323 68.029 99.7923C65.989 100.102 68.5389 95.3423 68.7989 94.5723C70.6289 89.1123 70.6089 84.8623 67.4889 79.9523C53.8289 58.4523 24.329 44.7823 3.70897 30.8523C-1.39103 26.7723 -0.111045 21.6623 1.03896 16.0023C1.68896 12.7723 3.99896 3.49226 5.72896 1.07226C7.06896 -0.807739 7.80895 0.182262 9.34895 1.04226C19.849 6.94226 30.8489 15.2223 40.7189 22.1023H40.709Z" fill="#136497"/>
<path d="M144.139 56.332C144.259 56.872 143.839 57.0021 143.569 57.3221C139.229 62.6621 133.399 67.5521 128.479 72.3621C113.949 81.4321 98.5087 89.1421 83.4187 97.2521C82.3187 96.8721 80.8787 97.4621 81.3587 96.0421C81.6287 95.2421 86.7887 91.4421 87.8687 90.6121C95.0887 85.0421 103.099 79.4821 110.779 74.5721C121.439 67.7521 132.599 61.502 144.139 56.332Z" fill="#DA4927"/>
<path d="M184.68 14.0124V10.9424H205.96V14.0124L196.08 15.1424H194.53L184.67 14.0124H184.68ZM196.09 57.1724L205.97 58.3024V61.3724H184.69V58.3024L194.55 57.1724H196.1H196.09ZM191.76 34.3024C191.76 26.5424 191.76 18.7024 191.53 10.9424H199.1C198.87 18.5524 198.87 26.3924 198.87 34.3024V38.0124C198.87 45.7724 198.87 53.6124 199.1 61.3724H191.53C191.76 53.7624 191.76 45.9224 191.76 38.0124V34.3024Z" fill="#136497"/>
<path d="M218.891 14.0124V10.9424H240.141V14.0124L230.301 15.1424H228.751L218.891 14.0124ZM230.301 57.1724L240.101 58.3024V61.3724H218.891V58.3024L228.751 57.1724H230.301ZM225.971 34.3024C225.971 26.5424 225.971 18.7024 225.741 10.9424H233.071C232.841 18.5524 232.841 26.3924 232.841 34.3024V39.8924C232.841 45.7824 232.841 53.6124 233.071 61.3824H225.741C225.971 53.7724 225.971 45.9324 225.971 38.0224V34.3124V34.3024ZM229.391 43.2324L255.781 10.9424H260.361L229.391 48.1524V43.2324ZM243.501 28.4924L261.741 61.3824H254.281L239.361 33.4524L243.501 28.5024V28.4924ZM246.061 58.3024L255.171 57.1724H256.341L265.431 58.3024V61.3724H246.071V58.3024H246.061ZM246.951 14.0124V10.9424H264.291V14.0124L255.981 15.1424L254.431 15.5024L246.951 14.0124Z" fill="#136497"/>
<path d="M273.211 58.3025L280.761 57.1725H282.261L290.481 58.3025V61.3725H273.211V58.3025ZM295.611 10.5725H300.321L317.631 61.3725H310.291L295.271 16.4925L297.061 16.2725L281.741 61.3625H278.151L295.611 10.5625V10.5725ZM286.841 41.4725H307.191L308.421 44.9925H285.631L286.841 41.4725ZM301.561 58.3125L311.001 57.1825H312.711L322.071 58.3125V61.3725H301.561V58.3125Z" fill="#136497"/>
<path d="M331.699 14.0116V10.9416H342.339V15.1416H341.559L331.699 14.0116ZM343.119 57.1716L352.979 58.3016V61.3716H331.699V58.3016L341.559 57.1716H343.119ZM338.779 34.3016C338.779 26.5416 338.779 18.7016 338.549 10.9416H346.109C345.879 18.7716 345.879 26.1716 345.879 35.0216V37.2816C345.879 45.7716 345.879 53.6116 346.109 61.3716H338.549C338.779 53.7616 338.779 45.9217 338.779 38.0117V34.3016ZM342.339 34.6016H351.729C359.829 34.6016 363.659 30.2316 363.659 24.2016C363.659 18.1716 360.279 14.4516 352.529 14.4516H342.329V10.9316H352.769C364.319 10.9316 371.089 15.8216 371.089 24.1516C371.089 30.5216 366.079 36.3316 356.009 37.1516L356.229 36.5416C362.029 37.0616 365.319 39.6216 367.319 46.4816L370.919 58.9417L368.359 57.3716L376.319 58.2916V61.3616C374.839 61.8316 373.059 62.1317 370.729 62.1317C365.959 62.1317 363.819 60.8916 362.929 57.2816L359.939 45.2017C358.479 39.1517 355.739 38.0316 349.579 38.0316H342.329V34.5916L342.339 34.6016Z" fill="#136497"/>
<path d="M384.301 14.0116V10.9416H405.601V14.0116L395.721 15.1416H394.181L384.301 14.0116ZM410.261 57.1516C418.821 57.1516 423.171 52.2716 423.171 38.9016V10.9316H427.001V40.7516C427.001 56.5816 419.331 62.5117 409.021 62.5117C398.081 62.5117 390.651 56.4417 390.651 42.3917V34.2516C390.651 26.5116 390.651 18.6816 390.421 10.9316H397.991C397.761 18.5316 397.761 26.3516 397.761 34.2516V40.1917C397.761 53.0717 402.581 57.1417 410.241 57.1417L410.261 57.1516ZM423.741 15.1116L415.471 14.0016V10.9316H433.551V14.0016L425.291 15.1116H423.741Z" fill="#136497"/>
<path d="M470.059 49.632C470.059 44.782 467.179 42.622 460.729 40.092L457.849 38.942C450.099 35.872 444.829 31.492 444.829 23.772C444.829 15.082 452.139 9.79199 461.819 9.79199C466.889 9.79199 470.949 11.362 474.219 13.772L473.759 23.612H469.099L467.009 12.232L471.899 14.702V18.472C468.189 14.892 465.399 13.602 461.409 13.602C455.619 13.602 451.229 16.532 451.229 22.092C451.229 26.802 454.279 29.542 459.719 31.652L462.689 32.812C472.619 36.682 476.469 41.042 476.469 48.162C476.469 57.052 469.049 62.532 458.579 62.532C452.929 62.532 447.379 60.752 443.859 58.542L444.309 47.952H448.979L450.939 59.592L445.989 57.502V53.882C450.669 57.222 453.259 58.722 458.369 58.722C465.429 58.722 470.069 55.422 470.069 49.642L470.059 49.632Z" fill="#136497"/>
<path d="M184.669 82.2012V88.2911C184.669 88.9011 184.819 89.3712 185.119 89.7012C185.419 90.0312 185.859 90.1912 186.439 90.1912C187.019 90.1912 187.459 90.0212 187.769 89.7012C188.079 89.3712 188.229 88.9011 188.229 88.2911V82.2012H190.709V88.2711C190.709 89.1811 190.519 89.9512 190.129 90.5712C189.739 91.2012 189.219 91.6711 188.569 91.9911C187.919 92.3111 187.189 92.4711 186.389 92.4711C185.589 92.4711 184.869 92.3112 184.239 92.0012C183.609 91.6912 183.109 91.2111 182.739 90.5811C182.369 89.9511 182.189 89.1811 182.189 88.2711V82.2012H184.669Z" fill="#1A2B56"/>
<path d="M201.549 92.3712H199.069L194.929 86.1011V92.3712H192.449V82.2012H194.929L199.069 88.5012V82.2012H201.549V92.3712Z" fill="#1A2B56"/>
<path d="M205.82 82.2012V92.3712H203.34V82.2012H205.82Z" fill="#1A2B56"/>
<path d="M214.939 82.2012V84.1912H212.239V92.3812H209.759V84.1912H207.059V82.2012H214.929H214.939Z" fill="#1A2B56"/>
<path d="M218.66 84.1812V86.2411H221.98V88.1511H218.66V90.3812H222.41V92.3712H216.18V82.2012H222.41V84.1912H218.66V84.1812Z" fill="#1A2B56"/>
<path d="M230.649 82.8311C231.449 83.2511 232.069 83.8512 232.509 84.6212C232.949 85.3912 233.169 86.2711 233.169 87.2811C233.169 88.2911 232.949 89.1612 232.509 89.9312C232.069 90.7012 231.449 91.3011 230.639 91.7311C229.829 92.1611 228.899 92.3712 227.839 92.3712H224.029V82.2012H227.839C228.909 82.2012 229.849 82.4111 230.649 82.8411V82.8311ZM229.859 89.4611C230.379 88.9511 230.639 88.2211 230.639 87.2911C230.639 86.3611 230.379 85.6211 229.859 85.1011C229.339 84.5811 228.609 84.3212 227.669 84.3212H226.499V90.2311H227.669C228.609 90.2311 229.339 89.9711 229.859 89.4611Z" fill="#1A2B56"/>
<path d="M249.149 82.2012V92.3712H246.669V86.2711L244.389 92.3712H242.389L240.099 86.2612V92.3712H237.619V82.2012H240.549L243.399 89.2411L246.229 82.2012H249.139H249.149Z" fill="#1A2B56"/>
<path d="M257.26 90.5712H253.46L252.85 92.3712H250.26L253.94 82.2012H256.81L260.49 92.3712H257.87L257.26 90.5712ZM256.63 88.6611L255.37 84.9412L254.12 88.6611H256.63Z" fill="#1A2B56"/>
<path d="M266.799 92.3712L264.679 88.5311H264.089V92.3712H261.609V82.2012H265.769C266.569 82.2012 267.259 82.3412 267.819 82.6212C268.379 82.9012 268.809 83.2811 269.089 83.7711C269.369 84.2611 269.509 84.8011 269.509 85.4011C269.509 86.0811 269.319 86.6811 268.939 87.2111C268.559 87.7411 267.999 88.1211 267.249 88.3411L269.599 92.3712H266.799ZM264.089 86.7811H265.629C266.079 86.7811 266.419 86.6712 266.649 86.4512C266.879 86.2312 266.989 85.9112 266.989 85.5112C266.989 85.1112 266.879 84.8211 266.649 84.6011C266.419 84.3811 266.079 84.2711 265.629 84.2711H264.089V86.7911V86.7811Z" fill="#1A2B56"/>
<path d="M273.539 82.2012V92.3712H271.059V82.2012H273.539Z" fill="#1A2B56"/>
<path d="M284.43 92.3712H281.95L277.81 86.1011V92.3712H275.33V82.2012H277.81L281.95 88.5012V82.2012H284.43V92.3712Z" fill="#1A2B56"/>
<path d="M288.709 84.1812V86.2411H292.029V88.1511H288.709V90.3812H292.459V92.3712H286.229V82.2012H292.459V84.1912H288.709V84.1812Z" fill="#1A2B56"/>
<path d="M298.82 92.1113C298.23 91.8713 297.76 91.5113 297.41 91.0413C297.06 90.5713 296.87 90.0012 296.85 89.3312H299.49C299.53 89.7112 299.66 89.9913 299.88 90.1913C300.1 90.3913 300.39 90.4913 300.75 90.4913C301.11 90.4913 301.41 90.4113 301.62 90.2413C301.83 90.0713 301.94 89.8413 301.94 89.5413C301.94 89.2913 301.86 89.0813 301.69 88.9213C301.52 88.7613 301.31 88.6213 301.07 88.5113C300.82 88.4013 300.47 88.2812 300.02 88.1512C299.36 87.9512 298.83 87.7413 298.41 87.5413C297.99 87.3413 297.64 87.0413 297.34 86.6413C297.04 86.2413 296.89 85.7312 296.89 85.0912C296.89 84.1412 297.23 83.4013 297.92 82.8713C298.61 82.3313 299.5 82.0713 300.6 82.0713C301.7 82.0713 302.62 82.3413 303.31 82.8713C304 83.4113 304.36 84.1513 304.41 85.1113H301.73C301.71 84.7813 301.59 84.5212 301.37 84.3312C301.15 84.1412 300.86 84.0513 300.51 84.0513C300.21 84.0513 299.97 84.1313 299.79 84.2913C299.61 84.4513 299.51 84.6813 299.51 84.9813C299.51 85.3113 299.67 85.5613 299.97 85.7513C300.28 85.9313 300.76 86.1312 301.42 86.3412C302.08 86.5612 302.61 86.7713 303.02 86.9813C303.43 87.1813 303.78 87.4813 304.08 87.8613C304.38 88.2513 304.53 88.7413 304.53 89.3513C304.53 89.9613 304.38 90.4613 304.09 90.9313C303.8 91.4013 303.37 91.7813 302.81 92.0613C302.25 92.3413 301.59 92.4813 300.83 92.4813C300.07 92.4813 299.42 92.3613 298.83 92.1213L298.82 92.1113Z" fill="#1A2B56"/>
<path d="M308.529 84.1812V86.2411H311.849V88.1511H308.529V90.3812H312.279V92.3712H306.049V82.2012H312.279V84.1912H308.529V84.1812Z" fill="#1A2B56"/>
<path d="M319.079 92.3712L316.959 88.5311H316.369V92.3712H313.889V82.2012H318.049C318.849 82.2012 319.539 82.3412 320.099 82.6212C320.659 82.9012 321.089 83.2811 321.369 83.7711C321.649 84.2611 321.789 84.8011 321.789 85.4011C321.789 86.0811 321.599 86.6811 321.219 87.2111C320.839 87.7411 320.279 88.1211 319.529 88.3411L321.879 92.3712H319.079ZM316.369 86.7811H317.909C318.359 86.7811 318.699 86.6712 318.929 86.4512C319.159 86.2312 319.269 85.9112 319.269 85.5112C319.269 85.1112 319.159 84.8211 318.929 84.6011C318.699 84.3811 318.359 84.2711 317.909 84.2711H316.369V86.7911V86.7811Z" fill="#1A2B56"/>
<path d="M332.89 82.2012L329.28 92.3712H326.18L322.57 82.2012H325.21L327.73 89.8812L330.27 82.2012H332.89Z" fill="#1A2B56"/>
<path d="M336.39 82.2012V92.3712H333.91V82.2012H336.39Z" fill="#1A2B56"/>
<path d="M338.419 84.582C338.849 83.792 339.46 83.1821 340.24 82.7421C341.02 82.3021 341.9 82.082 342.88 82.082C344.09 82.082 345.119 82.4021 345.979 83.0421C346.839 83.6821 347.41 84.552 347.7 85.652H344.979C344.779 85.232 344.49 84.9021 344.12 84.6821C343.75 84.4621 343.33 84.3521 342.85 84.3521C342.09 84.3521 341.47 84.622 340.99 85.152C340.52 85.682 340.28 86.392 340.28 87.282C340.28 88.172 340.52 88.882 340.99 89.412C341.46 89.942 342.08 90.212 342.85 90.212C343.32 90.212 343.75 90.1021 344.12 89.8821C344.49 89.6621 344.779 89.332 344.979 88.912H347.7C347.41 90.012 346.839 90.8821 345.979 91.5121C345.119 92.1421 344.09 92.462 342.88 92.462C341.89 92.462 341.01 92.2421 340.24 91.8021C339.46 91.3621 338.859 90.752 338.419 89.972C337.979 89.192 337.77 88.2921 337.77 87.2921C337.77 86.2921 337.989 85.3921 338.419 84.6021V84.582Z" fill="#1A2B56"/>
<path d="M351.709 84.1812V86.2411H355.029V88.1511H351.709V90.3812H355.459V92.3712H349.229V82.2012H355.459V84.1912H351.709V84.1812Z" fill="#1A2B56"/>
<path d="M358.749 92.1113C358.159 91.8713 357.689 91.5113 357.339 91.0413C356.989 90.5713 356.799 90.0012 356.779 89.3312H359.419C359.459 89.7112 359.589 89.9913 359.809 90.1913C360.029 90.3913 360.319 90.4913 360.679 90.4913C361.039 90.4913 361.339 90.4113 361.549 90.2413C361.759 90.0713 361.869 89.8413 361.869 89.5413C361.869 89.2913 361.789 89.0813 361.619 88.9213C361.449 88.7613 361.239 88.6213 360.999 88.5113C360.749 88.4013 360.399 88.2812 359.949 88.1512C359.289 87.9512 358.759 87.7413 358.339 87.5413C357.919 87.3413 357.569 87.0413 357.269 86.6413C356.969 86.2413 356.819 85.7312 356.819 85.0912C356.819 84.1412 357.159 83.4013 357.849 82.8713C358.539 82.3313 359.429 82.0713 360.529 82.0713C361.629 82.0713 362.549 82.3413 363.239 82.8713C363.929 83.4113 364.289 84.1513 364.339 85.1113H361.659C361.639 84.7813 361.519 84.5212 361.299 84.3312C361.079 84.1412 360.789 84.0513 360.439 84.0513C360.139 84.0513 359.899 84.1313 359.719 84.2913C359.539 84.4513 359.439 84.6813 359.439 84.9813C359.439 85.3113 359.599 85.5613 359.899 85.7513C360.209 85.9313 360.689 86.1312 361.349 86.3412C362.009 86.5612 362.539 86.7713 362.949 86.9813C363.359 87.1813 363.709 87.4813 364.009 87.8613C364.309 88.2513 364.459 88.7413 364.459 89.3513C364.459 89.9613 364.309 90.4613 364.019 90.9313C363.729 91.4013 363.299 91.7813 362.739 92.0613C362.179 92.3413 361.519 92.4813 360.759 92.4813C359.999 92.4813 359.349 92.3613 358.759 92.1213L358.749 92.1113Z" fill="#1A2B56"/>
<path d="M374.949 92.3712L371.529 87.8812V92.3712H369.049V82.2012H371.529V86.6611L374.919 82.2012H377.829L373.889 87.1812L377.979 92.3712H374.949Z" fill="#1A2B56"/>
<path d="M379.25 92.102C378.97 91.842 378.84 91.532 378.84 91.152C378.84 90.772 378.98 90.442 379.25 90.182C379.53 89.922 379.88 89.792 380.32 89.792C380.76 89.792 381.1 89.922 381.37 90.182C381.65 90.442 381.78 90.762 381.78 91.152C381.78 91.542 381.64 91.842 381.37 92.102C381.1 92.362 380.74 92.482 380.32 92.482C379.9 92.482 379.53 92.352 379.25 92.102Z" fill="#1A2B56"/>
<path d="M384.919 92.1113C384.329 91.8713 383.859 91.5113 383.509 91.0413C383.159 90.5713 382.969 90.0012 382.949 89.3312H385.589C385.629 89.7112 385.759 89.9913 385.979 90.1913C386.199 90.3913 386.489 90.4913 386.849 90.4913C387.209 90.4913 387.509 90.4113 387.719 90.2413C387.929 90.0713 388.039 89.8413 388.039 89.5413C388.039 89.2913 387.959 89.0813 387.789 88.9213C387.619 88.7613 387.409 88.6213 387.169 88.5113C386.919 88.4013 386.569 88.2812 386.119 88.1512C385.459 87.9512 384.929 87.7413 384.509 87.5413C384.089 87.3413 383.739 87.0413 383.439 86.6413C383.139 86.2413 382.989 85.7312 382.989 85.0912C382.989 84.1412 383.329 83.4013 384.019 82.8713C384.709 82.3313 385.599 82.0713 386.699 82.0713C387.799 82.0713 388.719 82.3413 389.409 82.8713C390.099 83.4113 390.459 84.1513 390.509 85.1113H387.829C387.809 84.7813 387.689 84.5212 387.469 84.3312C387.249 84.1412 386.959 84.0513 386.609 84.0513C386.309 84.0513 386.069 84.1313 385.889 84.2913C385.709 84.4513 385.609 84.6813 385.609 84.9813C385.609 85.3113 385.769 85.5613 386.069 85.7513C386.379 85.9313 386.859 86.1312 387.519 86.3412C388.179 86.5612 388.709 86.7713 389.119 86.9813C389.529 87.1813 389.879 87.4813 390.179 87.8613C390.479 88.2513 390.629 88.7413 390.629 89.3513C390.629 89.9613 390.479 90.4613 390.189 90.9313C389.899 91.4013 389.469 91.7813 388.909 92.0613C388.349 92.3413 387.689 92.4813 386.929 92.4813C386.169 92.4813 385.519 92.3613 384.929 92.1213L384.919 92.1113Z" fill="#1A2B56"/>
<path d="M392.24 92.102C391.96 91.842 391.83 91.532 391.83 91.152C391.83 90.772 391.97 90.442 392.24 90.182C392.52 89.922 392.87 89.792 393.31 89.792C393.75 89.792 394.09 89.922 394.36 90.182C394.64 90.442 394.77 90.762 394.77 91.152C394.77 91.542 394.63 91.842 394.36 92.102C394.09 92.362 393.73 92.482 393.31 92.482C392.89 92.482 392.52 92.352 392.24 92.102Z" fill="#1A2B56"/>
<path d="M396.47 84.582C396.9 83.792 397.51 83.1821 398.29 82.7421C399.07 82.3021 399.95 82.082 400.93 82.082C402.14 82.082 403.17 82.4021 404.03 83.0421C404.89 83.6821 405.46 84.552 405.75 85.652H403.03C402.83 85.232 402.54 84.9021 402.17 84.6821C401.8 84.4621 401.38 84.3521 400.9 84.3521C400.14 84.3521 399.52 84.622 399.04 85.152C398.57 85.682 398.33 86.392 398.33 87.282C398.33 88.172 398.57 88.882 399.04 89.412C399.51 89.942 400.13 90.212 400.9 90.212C401.37 90.212 401.8 90.1021 402.17 89.8821C402.54 89.6621 402.83 89.332 403.03 88.912H405.75C405.46 90.012 404.89 90.8821 404.03 91.5121C403.17 92.1421 402.14 92.462 400.93 92.462C399.94 92.462 399.06 92.2421 398.29 91.8021C397.51 91.3621 396.91 90.752 396.47 89.972C396.03 89.192 395.82 88.2921 395.82 87.2921C395.82 86.2921 396.04 85.3921 396.47 84.6021V84.582Z" fill="#1A2B56"/>
<path d="M411.489 91.9216C410.969 90.5016 410.709 88.9715 410.709 87.3315C410.709 85.6915 410.979 84.1216 411.519 82.6716C412.059 81.2316 412.829 80.0516 413.819 79.1416H416.249V79.3716C415.239 80.3716 414.449 81.5816 413.899 82.9916C413.349 84.4016 413.069 85.8415 413.069 87.3315C413.069 88.8215 413.339 90.2316 413.869 91.6016C414.399 92.9716 415.149 94.1616 416.119 95.1616V95.3916H413.669C412.729 94.4916 411.999 93.3316 411.479 91.9116L411.489 91.9216Z" fill="#1A2B56"/>
<path d="M417.49 84.582C417.92 83.792 418.53 83.1821 419.31 82.7421C420.09 82.3021 420.97 82.082 421.95 82.082C423.16 82.082 424.19 82.4021 425.05 83.0421C425.91 83.6821 426.48 84.552 426.77 85.652H424.05C423.85 85.232 423.56 84.9021 423.19 84.6821C422.82 84.4621 422.4 84.3521 421.92 84.3521C421.16 84.3521 420.54 84.622 420.06 85.152C419.59 85.682 419.35 86.392 419.35 87.282C419.35 88.172 419.59 88.882 420.06 89.412C420.53 89.942 421.15 90.212 421.92 90.212C422.39 90.212 422.82 90.1021 423.19 89.8821C423.56 89.6621 423.85 89.332 424.05 88.912H426.77C426.48 90.012 425.91 90.8821 425.05 91.5121C424.19 92.1421 423.16 92.462 421.95 92.462C420.96 92.462 420.08 92.2421 419.31 91.8021C418.53 91.3621 417.93 90.752 417.49 89.972C417.05 89.192 416.84 88.2921 416.84 87.2921C416.84 86.2921 417.06 85.3921 417.49 84.6021V84.582Z" fill="#1A2B56"/>
<path d="M430.779 90.4611H434.029V92.3712H428.309V82.2012H430.789V90.4611H430.779Z" fill="#1A2B56"/>
<path d="M437.389 91.8018C436.589 91.3618 435.959 90.7418 435.489 89.9418C435.019 89.1418 434.789 88.2518 434.789 87.2518C434.789 86.2518 435.019 85.3618 435.489 84.5718C435.959 83.7818 436.589 83.1617 437.389 82.7217C438.189 82.2817 439.059 82.0518 440.019 82.0518C440.979 82.0518 441.849 82.2717 442.649 82.7217C443.449 83.1717 444.069 83.7818 444.529 84.5718C444.989 85.3618 445.219 86.2618 445.219 87.2518C445.219 88.2418 444.989 89.1418 444.519 89.9418C444.059 90.7418 443.429 91.3618 442.639 91.8018C441.849 92.2418 440.969 92.4717 440.019 92.4717C439.069 92.4717 438.189 92.2518 437.389 91.8018ZM441.969 89.4017C442.459 88.8617 442.699 88.1518 442.699 87.2618C442.699 86.3718 442.459 85.6418 441.969 85.1118C441.479 84.5718 440.829 84.3118 440.019 84.3118C439.209 84.3118 438.539 84.5818 438.059 85.1118C437.569 85.6418 437.329 86.3617 437.329 87.2717C437.329 88.1817 437.569 88.8918 438.059 89.4218C438.549 89.9618 439.199 90.2217 440.019 90.2217C440.839 90.2217 441.479 89.9517 441.969 89.4117V89.4017Z" fill="#1A2B56"/>
<path d="M448.279 92.1113C447.689 91.8713 447.219 91.5113 446.869 91.0413C446.519 90.5713 446.329 90.0012 446.309 89.3312H448.949C448.989 89.7112 449.119 89.9913 449.339 90.1913C449.559 90.3913 449.849 90.4913 450.209 90.4913C450.569 90.4913 450.869 90.4113 451.079 90.2413C451.289 90.0713 451.399 89.8413 451.399 89.5413C451.399 89.2913 451.319 89.0813 451.149 88.9213C450.979 88.7613 450.769 88.6213 450.529 88.5113C450.279 88.4013 449.929 88.2812 449.479 88.1512C448.819 87.9512 448.289 87.7413 447.869 87.5413C447.449 87.3413 447.099 87.0413 446.799 86.6413C446.499 86.2413 446.349 85.7312 446.349 85.0912C446.349 84.1412 446.689 83.4013 447.379 82.8713C448.069 82.3313 448.959 82.0713 450.059 82.0713C451.159 82.0713 452.079 82.3413 452.769 82.8713C453.459 83.4113 453.819 84.1513 453.869 85.1113H451.189C451.169 84.7813 451.049 84.5212 450.829 84.3312C450.609 84.1412 450.319 84.0513 449.969 84.0513C449.669 84.0513 449.429 84.1313 449.249 84.2913C449.069 84.4513 448.969 84.6813 448.969 84.9813C448.969 85.3113 449.129 85.5613 449.429 85.7513C449.739 85.9313 450.219 86.1312 450.879 86.3412C451.539 86.5612 452.069 86.7713 452.479 86.9813C452.889 87.1813 453.239 87.4813 453.539 87.8613C453.839 88.2513 453.989 88.7413 453.989 89.3513C453.989 89.9613 453.839 90.4613 453.549 90.9313C453.259 91.4013 452.829 91.7813 452.269 92.0613C451.709 92.3413 451.049 92.4813 450.289 92.4813C449.529 92.4813 448.879 92.3613 448.289 92.1213L448.279 92.1113Z" fill="#1A2B56"/>
<path d="M457.99 84.1812V86.2411H461.31V88.1511H457.99V90.3812H461.74V92.3712H455.51V82.2012H461.74V84.1912H457.99V84.1812Z" fill="#1A2B56"/>
<path d="M469.979 82.8311C470.779 83.2511 471.399 83.8512 471.839 84.6212C472.279 85.3912 472.499 86.2711 472.499 87.2811C472.499 88.2911 472.279 89.1612 471.839 89.9312C471.399 90.7012 470.779 91.3011 469.969 91.7311C469.159 92.1611 468.229 92.3712 467.169 92.3712H463.359V82.2012H467.169C468.239 82.2012 469.179 82.4111 469.979 82.8411V82.8311ZM469.189 89.4611C469.709 88.9511 469.969 88.2211 469.969 87.2911C469.969 86.3611 469.709 85.6211 469.189 85.1011C468.669 84.5811 467.939 84.3212 466.999 84.3212H465.829V90.2311H466.999C467.939 90.2311 468.669 89.9711 469.189 89.4611Z" fill="#1A2B56"/>
<path d="M473.22 95.4014V95.1714C474.19 94.1714 474.93 92.9814 475.47 91.6114C476 90.2414 476.27 88.8114 476.27 87.3414C476.27 85.8714 475.99 84.4114 475.44 83.0014C474.89 81.5914 474.11 80.3914 473.09 79.3814V79.1514H475.52C476.51 80.0614 477.28 81.2314 477.82 82.6814C478.36 84.1214 478.63 85.6814 478.63 87.3414C478.63 89.0014 478.37 90.5114 477.85 91.9314C477.33 93.3514 476.6 94.5114 475.66 95.4114H473.21L473.22 95.4014Z" fill="#1A2B56"/>
</svg>
